<svg xmlns="http://www.w3.org/2000/svg" width="540.047" height="545.367">
  <defs>
    <clipPath clipPathUnits="userSpaceOnUse" id="a">
      <path d="M0 409.025h405.035V0H0z" />
    </clipPath>
  </defs>
  <g clip-path="url(#a)" transform="matrix(1.33333 0 0 -1.33333 0 545.367)">
    <path
      d="M73.252 111.844c0-1.726.326-3.317.979-4.775a11.943 11.943 0 016.53-6.3 12.436 12.436 0 014.687-.891c1.649 0 3.213.297 4.69.89a12.328 12.328 0 013.91 2.505 11.84 11.84 0 012.675 3.796c.652 1.458.978 3.049.978 4.775 0 1.726-.326 3.317-.978 4.775a11.872 11.872 0 01-2.675 3.796 12.433 12.433 0 01-8.6 3.396c-1.649 0-3.213-.297-4.688-.892a11.96 11.96 0 01-3.883-2.504 12.048 12.048 0 01-2.646-3.796c-.654-1.458-.979-3.05-.979-4.775m-11.793 0c0 3.22.594 6.223 1.783 9.002a22.47 22.47 0 004.948 7.279c2.108 2.072 4.63 3.69 7.564 4.862 2.934 1.169 6.164 1.754 9.694 1.754 3.49 0 6.712-.585 9.665-1.754 2.953-1.172 5.493-2.79 7.623-4.862a22.251 22.251 0 004.975-7.28c1.188-2.778 1.784-5.78 1.784-9.001 0-3.221-.596-6.223-1.784-9.002a22.251 22.251 0 00-4.975-7.28c-2.13-2.071-4.67-3.692-7.624-4.861-2.952-1.17-6.174-1.754-9.663-1.754-3.53 0-6.76.585-9.695 1.754-2.934 1.169-5.456 2.79-7.565 4.862a22.47 22.47 0 00-4.946 7.279c-1.19 2.779-1.785 5.78-1.785 9.002M132.219 114.145h2.128c2.225 0 3.932.46 5.12 1.38 1.19.92 1.784 2.245 1.784 3.97 0 1.726-.594 3.05-1.783 3.97-1.19.92-2.896 1.38-5.121 1.38h-2.128zm24.795-23.99h-14.037l-10.758 16.684V90.156h-11.275v43.377h17.546c2.416 0 4.525-.357 6.328-1.065 1.802-.71 3.288-1.677 4.458-2.906a12.247 12.247 0 002.646-4.256c.595-1.61.892-3.336.892-5.177 0-3.3-.796-5.973-2.387-8.025-1.592-2.052-3.941-3.443-7.047-4.171zM177.32 99.706h2.59c1.956 0 3.7.305 5.235.921 1.534.612 2.827 1.455 3.883 2.53 1.055 1.073 1.86 2.35 2.417 3.826.555 1.477.833 3.095.833 4.861 0 1.725-.288 3.336-.863 4.832-.575 1.495-1.39 2.782-2.445 3.854-1.055 1.073-2.35 1.918-3.883 2.531-1.534.613-3.26.92-5.177.92h-2.59zm-11.274 33.826h16.683c2.952 0 5.723-.594 8.313-1.784 2.589-1.188 4.85-2.77 6.789-4.746 1.935-1.975 3.46-4.275 4.573-6.902a20.988 20.988 0 001.668-8.256c0-2.838-.547-5.573-1.64-8.198a21.997 21.997 0 00-4.544-6.933 22.426 22.426 0 00-6.788-4.773c-2.59-1.19-5.38-1.785-8.371-1.785h-16.683zM226.853 90.155h-11.274v43.377h11.274zM240.256 90.155v43.377h11.274l20.827-26.52v26.52h11.218V90.155h-11.218l-20.827 26.521v-26.52zM307.334 111.844c0-1.726.324-3.317.978-4.775a12.015 12.015 0 012.647-3.796 11.933 11.933 0 013.883-2.504 12.436 12.436 0 014.688-.891c1.648 0 3.211.297 4.689.89a12.34 12.34 0 013.911 2.505 11.84 11.84 0 012.675 3.796c.651 1.458.977 3.049.977 4.775 0 1.726-.326 3.317-.977 4.775a11.872 11.872 0 01-2.675 3.796 12.357 12.357 0 01-3.911 2.504 12.437 12.437 0 01-4.689.892c-1.649 0-3.213-.297-4.688-.892a11.949 11.949 0 01-6.53-6.3c-.654-1.458-.978-3.05-.978-4.775m-11.794 0c0 3.22.595 6.223 1.784 9.002 1.188 2.782 2.837 5.206 4.947 7.279 2.109 2.072 4.63 3.69 7.565 4.862 2.934 1.169 6.164 1.754 9.694 1.754 3.489 0 6.711-.585 9.664-1.754 2.953-1.172 5.494-2.79 7.623-4.862a22.254 22.254 0 004.976-7.28c1.188-2.778 1.783-5.78 1.783-9.001 0-3.221-.595-6.223-1.783-9.002a22.254 22.254 0 00-4.976-7.28c-2.129-2.071-4.67-3.692-7.623-4.861-2.953-1.17-6.175-1.754-9.664-1.754-3.53 0-6.76.585-9.694 1.754-2.935 1.169-5.456 2.79-7.565 4.862-2.11 2.073-3.759 4.497-4.947 7.279-1.189 2.779-1.784 5.78-1.784 9.002"
      fill="#30261d" />
    <path d="M299.098 294.228v53.503c0 5.807-4.708 10.515-10.516 10.515H236.59c32.652-9.56 53.805-33.259 62.507-64.018"
      fill="#ff9f19" />
    <path d="M168.442 358.246h-52.325c-5.622 0-10.18-4.558-10.18-10.18V294.23c8.702 30.76 29.854 54.458 62.505 64.017"
      fill="#9e1d97" />
    <path d="M105.938 223.927v-51.711c0-5.708 4.627-10.335 10.335-10.335H166.3c-33.816 9.54-52.5 33.035-60.362 62.046"
      fill="#a60064" />
    <path d="M299.098 223.927c-7.863-29.01-26.548-52.505-60.362-62.046h49.692c5.893 0 10.67 4.777 10.67 10.67z"
      fill="#ffb81d" />
    <path d="M202.978 291.34c27.354 0 34.092 34.092 34.092 34.092l-.022.044s-34.091-6.74-34.091-34.092z"
      fill="#30261d" />
    <path
      d="M203.032 291.347c0 27.354-34.092 34.092-34.092 34.092l-.042-.023s6.738-34.092 34.09-34.092zM231.174 275.217c8.454-26.015 42.96-21.887 42.96-21.887l.033.032s-16.942 30.343-42.957 21.89z"
      fill="#30261d" />
    <path
      d="M231.197 275.165c26.013 8.455 21.89 42.96 21.89 42.96l-.036.034s-30.342-16.945-21.888-42.958zM217.1 242.293c-22.128-16.078-7.54-47.621-7.54-47.621l.042-.022s23.622 25.493 7.544 47.62z"
      fill="#30261d" />
    <path
      d="M217.057 242.257c16.078-22.13 47.623-7.544 47.623-7.544l.02.043s-25.49 23.62-47.62 7.543zM183.941 242.298c-22.131 16.078-47.621-7.542-47.621-7.542l-.006-.048s31.54-14.586 47.619 7.544z"
      fill="#30261d" />
    <path
      d="M183.892 242.328c-16.078-22.13 7.542-47.62 7.542-47.62l.046-.007s14.587 31.543-7.542 47.619zM173.813 275.064c8.453 26.015-21.89 42.96-21.89 42.96l-.047-.009s-4.124-34.505 21.889-42.957z"
      fill="#30261d" />
    <path
      d="M173.825 275.121c-26.015 8.452-42.958-21.89-42.958-21.89l.007-.047s34.507-4.126 42.96 21.888zM202.978 291.34c27.354 0 34.092 34.092 34.092 34.092l-.022.044s-34.091-6.74-34.091-34.092z"
      fill="#30261d" />
    <path
      d="M203.032 291.347c0 27.354-34.092 34.092-34.092 34.092l-.044-.023s6.74-34.092 34.094-34.092zM146.976 284.549a2.102 2.102 0 010-4.201 2.102 2.102 0 010 4.2m0-8.345a6.252 6.252 0 00-6.245 6.245 6.252 6.252 0 006.245 6.246 6.253 6.253 0 006.245-6.246 6.253 6.253 0 00-6.245-6.245M256.843 284.549c-1.158 0-2.1-.942-2.1-2.101 0-1.158.942-2.1 2.1-2.1a2.102 2.102 0 010 4.2m0-8.345a6.253 6.253 0 00-6.245 6.245 6.253 6.253 0 006.245 6.246 6.253 6.253 0 006.245-6.246 6.253 6.253 0 00-6.245-6.245M202.956 320.258c-1.16 0-2.1-.942-2.1-2.1 0-1.159.94-2.1 2.1-2.1a2.102 2.102 0 010 4.2m0-8.346a6.253 6.253 0 00-6.245 6.245 6.254 6.254 0 006.245 6.247 6.253 6.253 0 006.245-6.247 6.252 6.252 0 00-6.245-6.245M163.468 222.676c-1.16 0-2.1-.94-2.1-2.1a2.1 2.1 0 014.2 0c0 1.16-.941 2.1-2.1 2.1m0-8.345a6.253 6.253 0 00-6.245 6.245 6.253 6.253 0 006.245 6.246 6.252 6.252 0 006.245-6.246 6.252 6.252 0 00-6.245-6.245M232.896 221.496a2.102 2.102 0 010-4.201 2.101 2.101 0 010 4.201m0-8.346a6.254 6.254 0 00-6.245 6.246 6.252 6.252 0 006.245 6.245 6.252 6.252 0 006.245-6.245 6.254 6.254 0 00-6.245-6.246M69.272 63.943h2.443c2.714 0 5.829 1.04 5.829 4.287 0 3.818-2.712 4.053-5.894 4.053H69.27zm-2.313 10.35h6.03c4.153 0 6.866-1.776 6.866-6.063 0-3.014-2.312-5.023-5.192-5.39v-.069c1.877-.234 2.279-1.239 3.015-2.813l3.985-9.043H79.12l-3.384 7.904c-1.34 3.015-2.344 3.115-4.554 3.115h-1.91V50.915H66.96zM95.701 60.661c0 2.981-1.206 5.93-4.354 5.93-3.115 0-5.024-3.117-5.024-5.93zm1.038-9.21c-1.474-.603-3.383-.938-4.957-.938-5.66 0-7.77 3.818-7.77 8.943 0 5.225 2.88 8.942 7.201 8.942 4.823 0 6.8-3.884 6.8-8.473v-1.073h-11.69c0-3.617 1.942-6.53 5.627-6.53 1.54 0 3.784.636 4.79 1.273zM100.729 53.394a10.035 10.035 0 014.454-1.072c2.01 0 3.785 1.105 3.785 3.048 0 4.052-8.206 3.417-8.206 8.374 0 3.382 2.747 4.655 5.56 4.655.904 0 2.714-.201 4.22-.771l-.201-1.841c-1.105.502-2.612.803-3.784.803-2.178 0-3.684-.67-3.684-2.846 0-3.183 8.406-2.781 8.406-8.374 0-3.618-3.383-4.857-5.961-4.857-1.642 0-3.283.2-4.79.805zM125.483 60.661c0 2.981-1.207 5.93-4.355 5.93-3.114 0-5.023-3.117-5.023-5.93zm1.037-9.21c-1.473-.603-3.382-.938-4.956-.938-5.66 0-7.77 3.818-7.77 8.943 0 5.225 2.88 8.942 7.2 8.942 4.824 0 6.8-3.884 6.8-8.473v-1.073h-11.69c0-3.617 1.943-6.53 5.628-6.53 1.54 0 3.783.636 4.788 1.273zM131.815 64.179c0 1.875 0 2.578-.134 3.817h2.111v-3.282h.067c.77 1.909 2.21 3.685 4.387 3.685.503 0 1.105-.101 1.474-.201v-2.21c-.435.133-1.005.2-1.54.2-3.35 0-4.255-3.751-4.255-6.832v-8.441h-2.11zM148.9 50.915h-2.48l-5.793 17.081h2.31l4.723-14.77h.067l4.957 14.77h2.21zM167.457 59.523h-.604c-3.65 0-8.004-.369-8.004-4.12 0-2.243 1.608-3.081 3.55-3.081 4.957 0 5.058 4.32 5.058 6.162zm.2-5.862h-.066c-.938-2.042-3.317-3.148-5.426-3.148-4.856 0-5.627 3.283-5.627 4.823 0 5.728 6.096 5.996 10.517 5.996h.402v.87c0 2.915-1.039 4.388-3.886 4.388-1.775 0-3.449-.403-5.023-1.408v2.045c1.305.635 3.516 1.171 5.023 1.171 4.221 0 5.995-1.908 5.995-6.362v-7.537c0-1.373 0-2.413.168-3.584h-2.077zM190.272 52.321c3.75 0 5.058 4.02 5.058 7.135 0 3.114-1.308 7.134-5.059 7.134-4.02 0-5.057-3.819-5.057-7.134 0-3.317 1.038-7.135 5.058-7.135m7.167-1.406h-2.11v2.713h-.068c-1.138-2.177-2.88-3.116-5.325-3.116-4.689 0-7.033 3.886-7.033 8.944 0 5.191 2.01 8.942 7.034 8.942 3.35 0 5.022-2.445 5.324-3.282h.068v10.92h2.11zM212.95 60.661c0 2.981-1.206 5.93-4.354 5.93-3.115 0-5.024-3.117-5.024-5.93zm1.038-9.21c-1.474-.603-3.383-.938-4.957-.938-5.66 0-7.77 3.818-7.77 8.943 0 5.225 2.88 8.942 7.201 8.942 4.823 0 6.8-3.884 6.8-8.473v-1.073h-11.69c0-3.617 1.942-6.53 5.627-6.53 1.54 0 3.784.636 4.79 1.273zM235.564 66.59c-3.852 0-5.058-4.02-5.058-7.134 0-3.115 1.307-7.135 5.058-7.135 4.02 0 5.058 3.819 5.058 7.135s-1.039 7.134-5.059 7.134m-7.166 9.445h2.109v-10.92h.068c.302.838 1.975 3.284 5.325 3.284 5.024 0 7.034-3.751 7.034-8.943 0-5.057-2.345-8.943-7.034-8.943-2.445 0-4.187.938-5.325 3.115h-.068v-2.713h-2.11zM247.223 67.996h2.11V50.915h-2.11zm2.11 4.556h-2.11v2.813h2.11zM261.325 52.321c3.684 0 5.66 3.183 5.66 7.135s-1.976 7.134-5.66 7.134c-3.685 0-5.66-3.182-5.66-7.134 0-3.952 1.975-7.135 5.66-7.135m0 16.077c5.526 0 7.971-4.287 7.971-8.942 0-4.656-2.445-8.944-7.97-8.944-5.527 0-7.973 4.288-7.973 8.944 0 4.655 2.446 8.942 7.972 8.942M271.98 53.394a10.035 10.035 0 014.454-1.072c2.01 0 3.785 1.105 3.785 3.048 0 4.052-8.206 3.417-8.206 8.374 0 3.382 2.747 4.655 5.56 4.655.904 0 2.713-.201 4.22-.771l-.201-1.841c-1.105.502-2.612.803-3.784.803-2.178 0-3.684-.67-3.684-2.846 0-3.183 8.406-2.781 8.406-8.374 0-3.618-3.383-4.857-5.961-4.857-1.642 0-3.283.2-4.79.805zM287.757 66.188h-3.45v1.808h3.45v1.24c0 3.583.134 7.2 4.52 7.2.67 0 1.576-.1 1.978-.335l-.134-1.841c-.435.234-1.072.367-1.675.367-2.88 0-2.58-3.113-2.58-5.157v-1.474h3.853v-1.808h-3.852V50.915h-2.11zM307.889 60.661c0 2.981-1.206 5.93-4.354 5.93-3.115 0-5.024-3.117-5.024-5.93zm1.038-9.21c-1.474-.603-3.383-.938-4.957-.938-5.66 0-7.77 3.818-7.77 8.943 0 5.225 2.88 8.942 7.2 8.942 4.824 0 6.8-3.884 6.8-8.473v-1.073h-11.69c0-3.617 1.943-6.53 5.628-6.53 1.54 0 3.784.636 4.789 1.273zM314.222 64.179c0 1.875 0 2.578-.134 3.817h2.11v-3.282h.068c.769 1.909 2.21 3.685 4.387 3.685.503 0 1.105-.101 1.474-.201v-2.21c-.435.133-1.005.2-1.541.2-3.35 0-4.254-3.751-4.254-6.832v-8.441h-2.11zM334.99 59.523h-.604c-3.65 0-8.004-.369-8.004-4.12 0-2.243 1.608-3.081 3.55-3.081 4.957 0 5.058 4.32 5.058 6.162zm.2-5.862h-.066c-.938-2.042-3.317-3.148-5.426-3.148-4.856 0-5.627 3.283-5.627 4.823 0 5.728 6.096 5.996 10.517 5.996h.402v.87c0 2.915-1.039 4.388-3.886 4.388-1.775 0-3.449-.403-5.023-1.408v2.045c1.305.635 3.516 1.171 5.023 1.171 4.221 0 5.995-1.908 5.995-6.362v-7.537c0-1.373 0-2.413.168-3.584h-2.077z"
      fill="#30261d" />
  </g>
</svg>
