<svg width="410" height="420" xmlns="http://www.w3.org/2000/svg"><defs><clipPath id="a" clipPathUnits="userSpaceOnUse"><path d="M0 409.025h405.035V0H0v409.025z"/></clipPath></defs><g transform="matrix(1.33333 0 0 -1.33333 0 545.367)" clip-path="url(#a)"><path fill="#30261d" d="M23.002 160.594c0-1.726.326-3.317.979-4.775a11.943 11.943 0 016.53-6.3 12.436 12.436 0 014.687-.89c1.649 0 3.213.296 4.69.89a12.328 12.328 0 013.91 2.504 11.84 11.84 0 012.675 3.796c.652 1.458.978 3.05.978 4.775 0 1.726-.326 3.317-.978 4.775a11.872 11.872 0 01-2.675 3.796 12.433 12.433 0 01-8.6 3.396c-1.65 0-3.213-.297-4.688-.892a11.96 11.96 0 01-3.883-2.504 12.048 12.048 0 01-2.646-3.796c-.654-1.458-.98-3.05-.98-4.775m-11.792 0c0 3.22.594 6.223 1.783 9.002a22.47 22.47 0 004.948 7.28c2.108 2.071 4.63 3.69 7.564 4.861 2.934 1.17 6.164 1.754 9.694 1.754 3.49 0 6.712-.585 9.665-1.754 2.953-1.172 5.493-2.79 7.623-4.862a22.251 22.251 0 004.975-7.28c1.188-2.778 1.784-5.78 1.784-9 0-3.222-.596-6.224-1.784-9.003a22.251 22.251 0 00-4.975-7.28c-2.13-2.07-4.67-3.692-7.624-4.86-2.952-1.17-6.174-1.755-9.663-1.755-3.53 0-6.76.585-9.695 1.754-2.934 1.17-5.456 2.79-7.565 4.862a22.47 22.47 0 00-4.946 7.28c-1.19 2.778-1.785 5.78-1.785 9.001m70.76 2.301h2.129c2.225 0 3.932.46 5.12 1.38 1.19.92 1.784 2.245 1.784 3.97 0 1.726-.594 3.05-1.783 3.97-1.19.92-2.896 1.38-5.121 1.38h-2.128v-10.7zm24.796-23.99H92.727L81.969 155.59v-16.683H70.694v43.377H88.24c2.416 0 4.525-.357 6.328-1.065 1.802-.71 3.288-1.677 4.458-2.906a12.247 12.247 0 002.646-4.256c.595-1.61.892-3.336.892-5.177 0-3.3-.796-5.973-2.387-8.025-1.592-2.052-3.941-3.443-7.047-4.17l13.634-17.779zm20.306 9.551h2.59c1.956 0 3.7.305 5.235.921 1.534.612 2.827 1.455 3.883 2.53 1.055 1.073 1.86 2.35 2.417 3.826.555 1.477.833 3.095.833 4.861 0 1.725-.288 3.336-.863 4.832-.575 1.495-1.39 2.782-2.445 3.854-1.055 1.073-2.35 1.918-3.883 2.531-1.534.613-3.26.92-5.177.92h-2.59v-24.275zm-11.274 33.826h16.683c2.952 0 5.723-.594 8.313-1.784 2.589-1.188 4.85-2.77 6.789-4.746 1.935-1.975 3.46-4.275 4.573-6.902a20.988 20.988 0 001.668-8.256c0-2.838-.547-5.573-1.64-8.198a21.997 21.997 0 00-4.544-6.933 22.426 22.426 0 00-6.788-4.773c-2.59-1.19-5.38-1.785-8.371-1.785h-16.683v43.377zm60.807-43.377h-11.274v43.377h11.274v-43.377zm13.403 0v43.377h11.274l20.827-26.52v26.52h11.218v-43.377h-11.218l-20.827 26.521v-26.52h-11.274zm67.078 21.69c0-1.727.324-3.318.978-4.776a12.015 12.015 0 012.647-3.796 11.933 11.933 0 013.883-2.504 12.436 12.436 0 014.688-.89c1.648 0 3.21.296 4.689.89a12.34 12.34 0 013.91 2.504 11.84 11.84 0 012.676 3.796c.65 1.458.977 3.05.977 4.775 0 1.726-.326 3.317-.977 4.775a11.872 11.872 0 01-2.675 3.796 12.357 12.357 0 01-3.911 2.504 12.437 12.437 0 01-4.69.892c-1.648 0-3.212-.297-4.687-.892a11.949 11.949 0 01-6.53-6.3c-.654-1.458-.978-3.05-.978-4.775m-11.794 0c0 3.22.595 6.223 1.784 9.002 1.188 2.782 2.837 5.206 4.947 7.28 2.109 2.071 4.63 3.69 7.565 4.861 2.934 1.17 6.164 1.754 9.694 1.754 3.489 0 6.71-.585 9.664-1.754 2.953-1.172 5.494-2.79 7.623-4.862a22.254 22.254 0 004.976-7.28c1.188-2.778 1.783-5.78 1.783-9 0-3.222-.595-6.224-1.783-9.003a22.254 22.254 0 00-4.976-7.28c-2.13-2.07-4.67-3.692-7.623-4.86-2.953-1.17-6.175-1.755-9.664-1.755-3.53 0-6.76.585-9.694 1.754-2.935 1.17-5.456 2.79-7.565 4.862-2.11 2.073-3.76 4.497-4.947 7.28-1.19 2.778-1.784 5.78-1.784 9.001"/><path fill="#ff9f19" d="M248.848 342.978v53.503c0 5.807-4.708 10.515-10.516 10.515H186.34c32.652-9.56 53.805-33.259 62.507-64.018"/><path fill="#9e1d97" d="M118.192 406.996H65.867c-5.622 0-10.18-4.558-10.18-10.18V342.98c8.702 30.76 29.854 54.458 62.505 64.017"/><path fill="#a60064" d="M55.688 272.677v-51.71c0-5.709 4.627-10.336 10.335-10.336h50.027c-33.816 9.54-52.5 33.035-60.362 62.046"/><path fill="#ffb81d" d="M248.848 272.677c-7.863-29.01-26.548-52.505-60.362-62.046h49.692c5.893 0 10.67 4.777 10.67 10.67v51.376z"/><path fill="#30261d" d="M152.728 340.09c27.354 0 34.092 34.092 34.092 34.092l-.022.044s-34.091-6.74-34.091-34.092l.02-.044z"/><path fill="#30261d" d="M152.782 340.097c0 27.354-34.092 34.092-34.092 34.092l-.042-.023s6.738-34.092 34.09-34.092l.044.023zm28.142-16.13c8.454-26.015 42.96-21.887 42.96-21.887l.033.032s-16.942 30.343-42.957 21.89l-.036-.035z"/><path fill="#30261d" d="M180.947 323.915c26.013 8.455 21.89 42.96 21.89 42.96l-.036.034s-30.342-16.945-21.888-42.958l.034-.036zm-14.097-32.872c-22.128-16.078-7.54-47.62-7.54-47.62l.042-.023s23.622 25.493 7.544 47.62l-.046.023z"/><path fill="#30261d" d="M166.807 291.007c16.078-22.13 47.623-7.544 47.623-7.544l.02.043s-25.49 23.62-47.62 7.543l-.023-.042zm-33.116.041c-22.131 16.078-47.621-7.542-47.621-7.542l-.006-.048s31.54-14.586 47.619 7.544l.008.046z"/><path fill="#30261d" d="M133.642 291.078c-16.078-22.13 7.542-47.62 7.542-47.62l.046-.007s14.587 31.543-7.542 47.62l-.046.007zm-10.08 32.736c8.454 26.015-21.89 42.96-21.89 42.96l-.046-.009s-4.124-34.505 21.889-42.957l.048.006z"/><path fill="#30261d" d="M123.575 323.871c-26.015 8.452-42.958-21.89-42.958-21.89l.007-.047s34.507-4.126 42.96 21.888l-.01.05zm29.153 16.22c27.354 0 34.092 34.091 34.092 34.091l-.022.044s-34.091-6.74-34.091-34.092l.02-.044z"/><path fill="#30261d" d="M152.782 340.097c0 27.354-34.092 34.092-34.092 34.092l-.044-.023s6.74-34.092 34.094-34.092l.042.023zM96.726 333.3a2.102 2.102 0 010-4.2 2.102 2.102 0 010 4.2m0-8.346a6.252 6.252 0 00-6.245 6.245 6.252 6.252 0 006.245 6.246 6.253 6.253 0 006.245-6.246 6.253 6.253 0 00-6.245-6.245m109.867 8.346c-1.158 0-2.1-.942-2.1-2.1 0-1.159.942-2.1 2.1-2.1a2.102 2.102 0 010 4.2m0-8.346a6.253 6.253 0 00-6.245 6.245 6.253 6.253 0 006.245 6.246 6.253 6.253 0 006.245-6.246 6.253 6.253 0 00-6.245-6.245m-53.887 44.055a2.101 2.101 0 010-4.2 2.102 2.102 0 010 4.2m0-8.346a6.253 6.253 0 00-6.245 6.245 6.254 6.254 0 006.245 6.247 6.253 6.253 0 006.245-6.247 6.252 6.252 0 00-6.245-6.245m-39.488-89.236a2.1 2.1 0 01-2.1-2.1 2.1 2.1 0 014.2 0 2.1 2.1 0 01-2.1 2.1m0-8.345a6.253 6.253 0 00-6.245 6.245 6.253 6.253 0 006.245 6.246 6.252 6.252 0 006.245-6.246 6.252 6.252 0 00-6.245-6.245m69.428 7.165a2.102 2.102 0 010-4.2 2.101 2.101 0 010 4.2m0-8.346a6.254 6.254 0 00-6.245 6.246 6.252 6.252 0 006.245 6.245 6.252 6.252 0 006.245-6.245 6.254 6.254 0 00-6.245-6.246M19.022 112.693h2.443c2.714 0 5.829 1.04 5.829 4.287 0 3.818-2.712 4.053-5.894 4.053h-2.38l.002-8.34zm-2.313 10.35h6.03c4.153 0 6.866-1.776 6.866-6.063 0-3.014-2.312-5.023-5.192-5.39v-.069c1.877-.234 2.279-1.239 3.015-2.813l3.985-9.043H28.87l-3.384 7.904c-1.34 3.015-2.344 3.115-4.554 3.115h-1.91V99.665H16.71l-.001 23.378zm28.742-13.632c0 2.981-1.206 5.93-4.354 5.93-3.115 0-5.024-3.117-5.024-5.93h9.378zm1.038-9.21c-1.474-.603-3.383-.938-4.957-.938-5.66 0-7.77 3.818-7.77 8.943 0 5.225 2.88 8.942 7.2 8.942 4.824 0 6.8-3.884 6.8-8.473v-1.073h-11.69c0-3.617 1.943-6.53 5.628-6.53 1.54 0 3.784.636 4.79 1.273l-.001-2.144zm3.99 1.943a10.035 10.035 0 014.454-1.072c2.01 0 3.785 1.105 3.785 3.048 0 4.052-8.206 3.417-8.206 8.374 0 3.382 2.747 4.655 5.56 4.655.904 0 2.714-.2 4.22-.77l-.201-1.842c-1.105.502-2.612.803-3.784.803-2.178 0-3.684-.67-3.684-2.846 0-3.183 8.406-2.78 8.406-8.374 0-3.618-3.383-4.857-5.961-4.857-1.642 0-3.283.2-4.79.805l.2 2.076zm24.754 7.267c0 2.981-1.207 5.93-4.355 5.93-3.114 0-5.023-3.117-5.023-5.93h9.378zm1.037-9.21c-1.473-.603-3.382-.938-4.956-.938-5.66 0-7.77 3.818-7.77 8.943 0 5.225 2.88 8.942 7.2 8.942 4.824 0 6.8-3.884 6.8-8.473v-1.073h-11.69c0-3.617 1.943-6.53 5.628-6.53 1.54 0 3.783.636 4.788 1.273v-2.144zm5.295 12.728c0 1.875 0 2.578-.134 3.817h2.11v-3.282h.068c.77 1.91 2.21 3.685 4.387 3.685.503 0 1.105-.1 1.474-.2v-2.21c-.435.132-1.005.2-1.54.2-3.35 0-4.255-3.752-4.255-6.833v-8.44h-2.11v13.263zM98.65 99.665h-2.48l-5.793 17.081h2.31l4.723-14.77h.067l4.957 14.77h2.21l-5.994-17.08zm18.557 8.608h-.604c-3.65 0-8.004-.369-8.004-4.12 0-2.243 1.608-3.08 3.55-3.08 4.957 0 5.058 4.32 5.058 6.161v1.04zm.2-5.862h-.066c-.938-2.042-3.317-3.148-5.426-3.148-4.856 0-5.627 3.283-5.627 4.823 0 5.728 6.096 5.996 10.517 5.996h.402v.87c0 2.915-1.04 4.388-3.886 4.388-1.775 0-3.45-.403-5.023-1.408v2.045c1.305.635 3.516 1.171 5.023 1.171 4.22 0 5.995-1.908 5.995-6.362v-7.537c0-1.373 0-2.413.168-3.584h-2.077v2.746zm22.615-1.34c3.75 0 5.058 4.02 5.058 7.135 0 3.114-1.308 7.134-5.06 7.134-4.02 0-5.056-3.819-5.056-7.134 0-3.317 1.038-7.135 5.058-7.135m7.167-1.406h-2.11v2.713h-.068c-1.138-2.177-2.88-3.116-5.325-3.116-4.69 0-7.033 3.886-7.033 8.944 0 5.191 2.01 8.942 7.034 8.942 3.35 0 5.022-2.445 5.324-3.282h.068v10.92h2.11v-25.12zm15.51 9.746c0 2.981-1.205 5.93-4.353 5.93-3.115 0-5.024-3.117-5.024-5.93h9.378zm1.039-9.21c-1.474-.603-3.383-.938-4.957-.938-5.66 0-7.77 3.818-7.77 8.943 0 5.225 2.88 8.942 7.2 8.942 4.824 0 6.8-3.884 6.8-8.473v-1.073h-11.69c0-3.617 1.943-6.53 5.628-6.53 1.54 0 3.784.636 4.79 1.273l-.001-2.144zm21.576 15.14c-3.852 0-5.058-4.02-5.058-7.135s1.307-7.135 5.058-7.135c4.02 0 5.058 3.82 5.058 7.135s-1.04 7.134-5.06 7.134m-7.165 9.445h2.109v-10.92h.068c.302.838 1.975 3.284 5.325 3.284 5.024 0 7.034-3.75 7.034-8.943 0-5.057-2.345-8.943-7.034-8.943-2.445 0-4.187.938-5.325 3.115h-.068v-2.713h-2.11v25.12zm18.826-8.039h2.11v-17.08h-2.11v17.08zm2.11 4.556h-2.11v2.813h2.11v-2.813zm11.992-20.23c3.684 0 5.66 3.182 5.66 7.134s-1.976 7.134-5.66 7.134c-3.685 0-5.66-3.182-5.66-7.134 0-3.952 1.975-7.135 5.66-7.135m0 16.077c5.526 0 7.97-4.287 7.97-8.942 0-4.656-2.444-8.944-7.97-8.944s-7.972 4.288-7.972 8.944c0 4.655 2.446 8.942 7.972 8.942m10.655-15.004a10.035 10.035 0 014.454-1.072c2.01 0 3.785 1.105 3.785 3.048 0 4.052-8.206 3.417-8.206 8.374 0 3.382 2.747 4.655 5.56 4.655.904 0 2.713-.2 4.22-.77l-.201-1.842c-1.105.502-2.612.803-3.784.803-2.178 0-3.684-.67-3.684-2.846 0-3.183 8.406-2.78 8.406-8.374 0-3.618-3.383-4.857-5.961-4.857-1.642 0-3.283.2-4.79.805l.2 2.076zm15.777 12.794h-3.45v1.808h3.45v1.24c0 3.583.134 7.2 4.52 7.2.67 0 1.576-.1 1.978-.335l-.134-1.84c-.435.233-1.072.366-1.675.366-2.88 0-2.58-3.113-2.58-5.157v-1.474h3.853v-1.808h-3.852V99.665h-2.11v15.273zm20.132-5.527c0 2.981-1.206 5.93-4.354 5.93-3.115 0-5.024-3.117-5.024-5.93h9.378zm1.038-9.21c-1.474-.603-3.383-.938-4.957-.938-5.66 0-7.77 3.818-7.77 8.943 0 5.225 2.88 8.942 7.2 8.942 4.824 0 6.8-3.884 6.8-8.473v-1.073h-11.69c0-3.617 1.943-6.53 5.628-6.53 1.54 0 3.784.636 4.789 1.273v-2.144zm5.295 12.728c0 1.875 0 2.578-.134 3.817h2.11v-3.282h.068c.769 1.91 2.21 3.685 4.387 3.685.503 0 1.105-.1 1.474-.2v-2.21c-.435.132-1.005.2-1.541.2-3.35 0-4.254-3.752-4.254-6.833v-8.44h-2.11v13.263zm20.768-4.656h-.604c-3.65 0-8.004-.369-8.004-4.12 0-2.243 1.608-3.08 3.55-3.08 4.957 0 5.058 4.32 5.058 6.161v1.04zm.2-5.862h-.066c-.938-2.042-3.317-3.148-5.426-3.148-4.856 0-5.627 3.283-5.627 4.823 0 5.728 6.096 5.996 10.517 5.996h.402v.87c0 2.915-1.04 4.388-3.886 4.388-1.775 0-3.45-.403-5.023-1.408v2.045c1.305.635 3.516 1.171 5.023 1.171 4.22 0 5.995-1.908 5.995-6.362v-7.537c0-1.373 0-2.413.168-3.584h-2.077v2.746z"/></g></svg>
