<svg width="410" height="480" xmlns="http://www.w3.org/2000/svg">
 <defs>
  <clipPath clipPathUnits="userSpaceOnUse" id="a">
   <path d="m0,409.025l405.035,0l0,-409.025l-405.035,0l0,409.025z" id="svg_1"/>
  </clipPath>
 </defs>
 <g>
  <title>Layer 1</title>
  <g clip-path="url(#a)" transform="matrix(1.33333, 0, 0, -1.33333, 0, 545.367)" id="svg_2">
   <path d="m23.00187,149.34409c0,-1.726 0.326,-3.317 0.979,-4.775a11.943,11.943 0 0 1 6.53,-6.3a12.436,12.436 0 0 1 4.687,-0.891c1.649,0 3.213,0.297 4.69,0.89a12.328,12.328 0 0 1 3.91,2.505a11.84,11.84 0 0 1 2.675,3.796c0.652,1.458 0.978,3.049 0.978,4.775c0,1.726 -0.326,3.317 -0.978,4.775a11.872,11.872 0 0 1 -2.675,3.796a12.433,12.433 0 0 1 -8.6,3.396c-1.649,0 -3.213,-0.297 -4.688,-0.892a11.96,11.96 0 0 1 -3.883,-2.504a12.048,12.048 0 0 1 -2.646,-3.796c-0.654,-1.458 -0.979,-3.05 -0.979,-4.775m-11.793,0c0,3.22 0.594,6.223 1.783,9.002a22.47,22.47 0 0 0 4.948,7.279c2.108,2.072 4.63,3.69 7.564,4.862c2.934,1.169 6.164,1.754 9.694,1.754c3.49,0 6.712,-0.585 9.665,-1.754c2.953,-1.172 5.493,-2.79 7.623,-4.862a22.251,22.251 0 0 0 4.975,-7.28c1.188,-2.778 1.784,-5.78 1.784,-9.001c0,-3.221 -0.596,-6.223 -1.784,-9.002a22.251,22.251 0 0 0 -4.975,-7.28c-2.13,-2.071 -4.67,-3.692 -7.624,-4.861c-2.952,-1.17 -6.174,-1.754 -9.663,-1.754c-3.53,0 -6.76,0.585 -9.695,1.754c-2.934,1.169 -5.456,2.79 -7.565,4.862a22.47,22.47 0 0 0 -4.946,7.279c-1.19,2.779 -1.785,5.78 -1.785,9.002m70.761,2.301l2.128,0c2.225,0 3.932,0.46 5.12,1.38c1.19,0.92 1.784,2.245 1.784,3.97c0,1.726 -0.594,3.05 -1.783,3.97c-1.19,0.92 -2.896,1.38 -5.121,1.38l-2.128,0l0,-10.7zm24.795,-23.99l-14.037,0l-10.758,16.684l0,-16.683l-11.275,0l0,43.377l17.546,0c2.416,0 4.525,-0.357 6.328,-1.065c1.802,-0.71 3.288,-1.677 4.458,-2.906a12.247,12.247 0 0 0 2.646,-4.256c0.595,-1.61 0.892,-3.336 0.892,-5.177c0,-3.3 -0.796,-5.973 -2.387,-8.025c-1.592,-2.052 -3.941,-3.443 -7.047,-4.171l13.634,-17.778zm20.306,9.551l2.59,0c1.956,0 3.7,0.305 5.235,0.921c1.534,0.612 2.827,1.455 3.883,2.53c1.055,1.073 1.86,2.35 2.417,3.826c0.555,1.477 0.833,3.095 0.833,4.861c0,1.725 -0.288,3.336 -0.863,4.832c-0.575,1.495 -1.39,2.782 -2.445,3.854c-1.055,1.073 -2.35,1.918 -3.883,2.531c-1.534,0.613 -3.26,0.92 -5.177,0.92l-2.59,0l0,-24.275zm-11.274,33.826l16.683,0c2.952,0 5.723,-0.594 8.313,-1.784c2.589,-1.188 4.85,-2.77 6.789,-4.746c1.935,-1.975 3.46,-4.275 4.573,-6.902a20.988,20.988 0 0 0 1.668,-8.256c0,-2.838 -0.547,-5.573 -1.64,-8.198a21.997,21.997 0 0 0 -4.544,-6.933a22.426,22.426 0 0 0 -6.788,-4.773c-2.59,-1.19 -5.38,-1.785 -8.371,-1.785l-16.683,0l0,43.377zm60.807,-43.377l-11.274,0l0,43.377l11.274,0l0,-43.377zm13.403,0l0,43.377l11.274,0l20.827,-26.52l0,26.52l11.218,0l0,-43.377l-11.218,0l-20.827,26.521l0,-26.52l-11.274,-0.001zm67.078,21.689c0,-1.726 0.324,-3.317 0.978,-4.775a12.015,12.015 0 0 1 2.647,-3.796a11.933,11.933 0 0 1 3.883,-2.504a12.436,12.436 0 0 1 4.688,-0.891c1.648,0 3.211,0.297 4.689,0.89a12.34,12.34 0 0 1 3.911,2.505a11.84,11.84 0 0 1 2.675,3.796c0.651,1.458 0.977,3.049 0.977,4.775c0,1.726 -0.326,3.317 -0.977,4.775a11.872,11.872 0 0 1 -2.675,3.796a12.357,12.357 0 0 1 -3.911,2.504a12.437,12.437 0 0 1 -4.689,0.892c-1.649,0 -3.213,-0.297 -4.688,-0.892a11.949,11.949 0 0 1 -6.53,-6.3c-0.654,-1.458 -0.978,-3.05 -0.978,-4.775m-11.794,0c0,3.22 0.595,6.223 1.784,9.002c1.188,2.782 2.837,5.206 4.947,7.279c2.109,2.072 4.63,3.69 7.565,4.862c2.934,1.169 6.164,1.754 9.694,1.754c3.489,0 6.711,-0.585 9.664,-1.754c2.953,-1.172 5.494,-2.79 7.623,-4.862a22.254,22.254 0 0 0 4.976,-7.28c1.188,-2.778 1.783,-5.78 1.783,-9.001c0,-3.221 -0.595,-6.223 -1.783,-9.002a22.254,22.254 0 0 0 -4.976,-7.28c-2.129,-2.071 -4.67,-3.692 -7.623,-4.861c-2.953,-1.17 -6.175,-1.754 -9.664,-1.754c-3.53,0 -6.76,0.585 -9.694,1.754c-2.935,1.169 -5.456,2.79 -7.565,4.862c-2.11,2.073 -3.759,4.497 -4.947,7.279c-1.189,2.779 -1.784,5.78 -1.784,9.002" fill="#30261d" id="svg_3"/>
   <path d="m248.84787,331.72809l0,53.503c0,5.807 -4.708,10.515 -10.516,10.515l-51.992,0c32.652,-9.56 53.805,-33.259 62.507,-64.018" fill="#ff9f19" id="svg_4"/>
   <path d="m118.19187,395.74609l-52.325,0c-5.622,0 -10.18,-4.558 -10.18,-10.18l0,-53.836c8.702,30.76 29.854,54.458 62.505,64.017" fill="#9e1d97" id="svg_5"/>
   <path d="m55.68787,261.42709l0,-51.711c0,-5.708 4.627,-10.335 10.335,-10.335l50.027,0c-33.816,9.54 -52.5,33.035 -60.362,62.046" fill="#a60064" id="svg_6"/>
   <path d="m248.84787,261.42709c-7.863,-29.01 -26.548,-52.505 -60.362,-62.046l49.692,0c5.893,0 10.67,4.777 10.67,10.67l0,51.376z" fill="#ffb81d" id="svg_7"/>
   <path d="m152.72787,328.84009c27.354,0 34.092,34.092 34.092,34.092l-0.022,0.044s-34.091,-6.74 -34.091,-34.092l0.021,-0.044z" fill="#30261d" id="svg_8"/>
   <path d="m152.78187,328.84709c0,27.354 -34.092,34.092 -34.092,34.092l-0.042,-0.023s6.738,-34.092 34.09,-34.092l0.044,0.023zm28.142,-16.13c8.454,-26.015 42.96,-21.887 42.96,-21.887l0.033,0.032s-16.942,30.343 -42.957,21.89l-0.036,-0.035z" fill="#30261d" id="svg_9"/>
   <path d="m180.94687,312.66509c26.013,8.455 21.89,42.96 21.89,42.96l-0.036,0.034s-30.342,-16.945 -21.888,-42.958l0.034,-0.036zm-14.097,-32.872c-22.128,-16.078 -7.54,-47.621 -7.54,-47.621l0.042,-0.022s23.622,25.493 7.544,47.62l-0.046,0.023z" fill="#30261d" id="svg_10"/>
   <path d="m166.80687,279.75709c16.078,-22.13 47.623,-7.544 47.623,-7.544l0.02,0.043s-25.49,23.62 -47.62,7.543l-0.023,-0.042zm-33.116,0.041c-22.131,16.078 -47.621,-7.542 -47.621,-7.542l-0.006,-0.048s31.54,-14.586 47.619,7.544l0.008,0.046z" fill="#30261d" id="svg_11"/>
   <path d="m133.64187,279.82809c-16.078,-22.13 7.542,-47.62 7.542,-47.62l0.046,-0.007s14.587,31.543 -7.542,47.619l-0.046,0.008zm-10.079,32.736c8.453,26.015 -21.89,42.96 -21.89,42.96l-0.047,-0.009s-4.124,-34.505 21.889,-42.957l0.048,0.006z" fill="#30261d" id="svg_12"/>
   <path d="m123.57487,312.62109c-26.015,8.452 -42.958,-21.89 -42.958,-21.89l0.007,-0.047s34.507,-4.126 42.96,21.888l-0.009,0.049zm29.153,16.219c27.354,0 34.092,34.092 34.092,34.092l-0.022,0.044s-34.091,-6.74 -34.091,-34.092l0.021,-0.044z" fill="#30261d" id="svg_13"/>
   <path d="m152.78187,328.84709c0,27.354 -34.092,34.092 -34.092,34.092l-0.044,-0.023s6.74,-34.092 34.094,-34.092l0.042,0.023zm-56.056,-6.798a2.102,2.102 0 0 1 0,-4.201a2.102,2.102 0 0 1 0,4.2m0,-8.345a6.252,6.252 0 0 0 -6.245,6.245a6.252,6.252 0 0 0 6.245,6.246a6.253,6.253 0 0 0 6.245,-6.246a6.253,6.253 0 0 0 -6.245,-6.245m109.867,8.346c-1.158,0 -2.1,-0.942 -2.1,-2.101c0,-1.158 0.942,-2.1 2.1,-2.1a2.102,2.102 0 0 1 0,4.2m0,-8.345a6.253,6.253 0 0 0 -6.245,6.245a6.253,6.253 0 0 0 6.245,6.246a6.253,6.253 0 0 0 6.245,-6.246a6.253,6.253 0 0 0 -6.245,-6.245m-53.887,44.055c-1.16,0 -2.1,-0.942 -2.1,-2.1c0,-1.159 0.94,-2.1 2.1,-2.1a2.102,2.102 0 0 1 0,4.2m0,-8.346a6.253,6.253 0 0 0 -6.245,6.245a6.254,6.254 0 0 0 6.245,6.247a6.253,6.253 0 0 0 6.245,-6.247a6.252,6.252 0 0 0 -6.245,-6.245m-39.488,-89.236c-1.16,0 -2.1,-0.94 -2.1,-2.1a2.1,2.1 0 0 1 4.2,0c0,1.16 -0.941,2.1 -2.1,2.1m0,-8.345a6.253,6.253 0 0 0 -6.245,6.245a6.253,6.253 0 0 0 6.245,6.246a6.252,6.252 0 0 0 6.245,-6.246a6.252,6.252 0 0 0 -6.245,-6.245m69.428,7.165a2.102,2.102 0 0 1 0,-4.201a2.101,2.101 0 0 1 0,4.201m0,-8.346a6.254,6.254 0 0 0 -6.245,6.246a6.252,6.252 0 0 0 6.245,6.245a6.252,6.252 0 0 0 6.245,-6.245a6.254,6.254 0 0 0 -6.245,-6.246m-163.624,-149.207l2.443,0c2.714,0 5.829,1.04 5.829,4.287c0,3.818 -2.712,4.053 -5.894,4.053l-2.38,0l0.002,-8.34zm-2.313,10.35l6.03,0c4.153,0 6.866,-1.776 6.866,-6.063c0,-3.014 -2.312,-5.023 -5.192,-5.39l0,-0.069c1.877,-0.234 2.279,-1.239 3.015,-2.813l3.985,-9.043l-2.543,0l-3.384,7.904c-1.34,3.015 -2.344,3.115 -4.554,3.115l-1.91,0l0,-11.019l-2.312,0l-0.001,23.378zm28.742,-13.632c0,2.981 -1.206,5.93 -4.354,5.93c-3.115,0 -5.024,-3.117 -5.024,-5.93l9.378,0zm1.038,-9.21c-1.474,-0.603 -3.383,-0.938 -4.957,-0.938c-5.66,0 -7.77,3.818 -7.77,8.943c0,5.225 2.88,8.942 7.201,8.942c4.823,0 6.8,-3.884 6.8,-8.473l0,-1.073l-11.69,0c0,-3.617 1.942,-6.53 5.627,-6.53c1.54,0 3.784,0.636 4.79,1.273l-0.001,-2.144zm3.99,1.943a10.035,10.035 0 0 1 4.454,-1.072c2.01,0 3.785,1.105 3.785,3.048c0,4.052 -8.206,3.417 -8.206,8.374c0,3.382 2.747,4.655 5.56,4.655c0.904,0 2.714,-0.201 4.22,-0.771l-0.201,-1.841c-1.105,0.502 -2.612,0.803 -3.784,0.803c-2.178,0 -3.684,-0.67 -3.684,-2.846c0,-3.183 8.406,-2.781 8.406,-8.374c0,-3.618 -3.383,-4.857 -5.961,-4.857c-1.642,0 -3.283,0.2 -4.79,0.805l0.201,2.076zm24.754,7.267c0,2.981 -1.207,5.93 -4.355,5.93c-3.114,0 -5.023,-3.117 -5.023,-5.93l9.378,0zm1.037,-9.21c-1.473,-0.603 -3.382,-0.938 -4.956,-0.938c-5.66,0 -7.77,3.818 -7.77,8.943c0,5.225 2.88,8.942 7.2,8.942c4.824,0 6.8,-3.884 6.8,-8.473l0,-1.073l-11.69,0c0,-3.617 1.943,-6.53 5.628,-6.53c1.54,0 3.783,0.636 4.788,1.273l0,-2.144zm5.295,12.728c0,1.875 0,2.578 -0.134,3.817l2.111,0l0,-3.282l0.067,0c0.77,1.909 2.21,3.685 4.387,3.685c0.503,0 1.105,-0.101 1.474,-0.201l0,-2.21c-0.435,0.133 -1.005,0.2 -1.54,0.2c-3.35,0 -4.255,-3.751 -4.255,-6.832l0,-8.441l-2.11,0l0,13.264zm17.085,-13.264l-2.48,0l-5.793,17.081l2.31,0l4.723,-14.77l0.067,0l4.957,14.77l2.21,0l-5.994,-17.081zm18.557,8.608l-0.604,0c-3.65,0 -8.004,-0.369 -8.004,-4.12c0,-2.243 1.608,-3.081 3.55,-3.081c4.957,0 5.058,4.32 5.058,6.162l0,1.039zm0.2,-5.862l-0.066,0c-0.938,-2.042 -3.317,-3.148 -5.426,-3.148c-4.856,0 -5.627,3.283 -5.627,4.823c0,5.728 6.096,5.996 10.517,5.996l0.402,0l0,0.87c0,2.915 -1.039,4.388 -3.886,4.388c-1.775,0 -3.449,-0.403 -5.023,-1.408l0,2.045c1.305,0.635 3.516,1.171 5.023,1.171c4.221,0 5.995,-1.908 5.995,-6.362l0,-7.537c0,-1.373 0,-2.413 0.168,-3.584l-2.077,0l0,2.746zm22.615,-1.34c3.75,0 5.058,4.02 5.058,7.135c0,3.114 -1.308,7.134 -5.059,7.134c-4.02,0 -5.057,-3.819 -5.057,-7.134c0,-3.317 1.038,-7.135 5.058,-7.135m7.167,-1.406l-2.11,0l0,2.713l-0.068,0c-1.138,-2.177 -2.88,-3.116 -5.325,-3.116c-4.689,0 -7.033,3.886 -7.033,8.944c0,5.191 2.01,8.942 7.034,8.942c3.35,0 5.022,-2.445 5.324,-3.282l0.068,0l0,10.92l2.11,0l0,-25.121zm15.511,9.746c0,2.981 -1.206,5.93 -4.354,5.93c-3.115,0 -5.024,-3.117 -5.024,-5.93l9.378,0zm1.038,-9.21c-1.474,-0.603 -3.383,-0.938 -4.957,-0.938c-5.66,0 -7.77,3.818 -7.77,8.943c0,5.225 2.88,8.942 7.201,8.942c4.823,0 6.8,-3.884 6.8,-8.473l0,-1.073l-11.69,0c0,-3.617 1.942,-6.53 5.627,-6.53c1.54,0 3.784,0.636 4.79,1.273l-0.001,-2.144zm21.576,15.139c-3.852,0 -5.058,-4.02 -5.058,-7.134c0,-3.115 1.307,-7.135 5.058,-7.135c4.02,0 5.058,3.819 5.058,7.135s-1.039,7.134 -5.059,7.134m-7.166,9.445l2.109,0l0,-10.92l0.068,0c0.302,0.838 1.975,3.284 5.325,3.284c5.024,0 7.034,-3.751 7.034,-8.943c0,-5.057 -2.345,-8.943 -7.034,-8.943c-2.445,0 -4.187,0.938 -5.325,3.115l-0.068,0l0,-2.713l-2.11,0l0.001,25.12zm18.826,-8.039l2.11,0l0,-17.081l-2.11,0l0,17.081zm2.11,4.556l-2.11,0l0,2.813l2.11,0l0,-2.813zm11.992,-20.231c3.684,0 5.66,3.183 5.66,7.135s-1.976,7.134 -5.66,7.134c-3.685,0 -5.66,-3.182 -5.66,-7.134c0,-3.952 1.975,-7.135 5.66,-7.135m0,16.077c5.526,0 7.971,-4.287 7.971,-8.942c0,-4.656 -2.445,-8.944 -7.97,-8.944c-5.527,0 -7.973,4.288 -7.973,8.944c0,4.655 2.446,8.942 7.972,8.942m10.655,-15.004a10.035,10.035 0 0 1 4.454,-1.072c2.01,0 3.785,1.105 3.785,3.048c0,4.052 -8.206,3.417 -8.206,8.374c0,3.382 2.747,4.655 5.56,4.655c0.904,0 2.713,-0.201 4.22,-0.771l-0.201,-1.841c-1.105,0.502 -2.612,0.803 -3.784,0.803c-2.178,0 -3.684,-0.67 -3.684,-2.846c0,-3.183 8.406,-2.781 8.406,-8.374c0,-3.618 -3.383,-4.857 -5.961,-4.857c-1.642,0 -3.283,0.2 -4.79,0.805l0.201,2.076zm15.777,12.794l-3.45,0l0,1.808l3.45,0l0,1.24c0,3.583 0.134,7.2 4.52,7.2c0.67,0 1.576,-0.1 1.978,-0.335l-0.134,-1.841c-0.435,0.234 -1.072,0.367 -1.675,0.367c-2.88,0 -2.58,-3.113 -2.58,-5.157l0,-1.474l3.853,0l0,-1.808l-3.852,0l0,-15.273l-2.11,0l0,15.273zm20.132,-5.527c0,2.981 -1.206,5.93 -4.354,5.93c-3.115,0 -5.024,-3.117 -5.024,-5.93l9.378,0zm1.038,-9.21c-1.474,-0.603 -3.383,-0.938 -4.957,-0.938c-5.66,0 -7.77,3.818 -7.77,8.943c0,5.225 2.88,8.942 7.2,8.942c4.824,0 6.8,-3.884 6.8,-8.473l0,-1.073l-11.69,0c0,-3.617 1.943,-6.53 5.628,-6.53c1.54,0 3.784,0.636 4.789,1.273l0,-2.144zm5.295,12.728c0,1.875 0,2.578 -0.134,3.817l2.11,0l0,-3.282l0.068,0c0.769,1.909 2.21,3.685 4.387,3.685c0.503,0 1.105,-0.101 1.474,-0.201l0,-2.21c-0.435,0.133 -1.005,0.2 -1.541,0.2c-3.35,0 -4.254,-3.751 -4.254,-6.832l0,-8.441l-2.11,0l0,13.264zm20.768,-4.656l-0.604,0c-3.65,0 -8.004,-0.369 -8.004,-4.12c0,-2.243 1.608,-3.081 3.55,-3.081c4.957,0 5.058,4.32 5.058,6.162l0,1.039zm0.2,-5.862l-0.066,0c-0.938,-2.042 -3.317,-3.148 -5.426,-3.148c-4.856,0 -5.627,3.283 -5.627,4.823c0,5.728 6.096,5.996 10.517,5.996l0.402,0l0,0.87c0,2.915 -1.039,4.388 -3.886,4.388c-1.775,0 -3.449,-0.403 -5.023,-1.408l0,2.045c1.305,0.635 3.516,1.171 5.023,1.171c4.221,0 5.995,-1.908 5.995,-6.362l0,-7.537c0,-1.373 0,-2.413 0.168,-3.584l-2.077,0l0,2.746z" fill="#30261d" id="svg_14"/>
  </g>
 </g>
</svg>
