<svg viewBox="0 0 520 430" preserveAspectRatio="xMidYMid meet" xmlns="http://www.w3.org/2000/svg">
    <g class="parrishes">
        <!-- La Massana -->
        <path d="m88.11388,93.82346l24.38253,17.42298l9.99968,0.62498l2.49992,33.74892l29.99904,39.37374l2.49992,9.99968l19.37438,7.49976l4.99984,4.99984l15.6245,-3.1249l13.12458,2.49992l-9.99968,19.37438l-9.3747,11.87462l1.87494,4.99984l-3.1249,5.62482l-24.37422,0.62498l-82.49736,23.12426l-21.24932,-44.37358l1.87494,-8.74972l-16.24948,-8.74972l-30.62402,14.99952l-6.2498,-8.12474l8.74972,-8.74972l0,-9.99968l8.74972,-16.24948l22.49928,-11.24964l3.1249,-11.24964l-18.12442,-9.3747l-6.2498,-15.6245l17.49944,-16.87446l4.37486,-17.49944l19.37438,2.49992l8.74972,-8.74972l8.74141,-0.54852z" />
        <!-- Andorra la Vella -->
        <path d="m74.42682,279.89045l9.32051,-8.64911l74.9976,-20.62434l12.4996,14.37454l3.74988,14.37454l29.99904,39.37374l-5.62482,14.99952l-83.12234,-23.12426l-41.81947,-30.72463z" />
        <!-- Sant Julià de Loria -->
        <path d="m74.42682,278.64049l-11.30384,8.85033l-2.49992,8.12474l-14.99952,5.62482l-28.74908,1.24996l-12.4996,10.62466l4.99984,6.87478l25.62418,2.49992l11.24964,11.24964l0,22.49928l9.99968,7.49976l-8.74972,7.49976l8.74972,32.49896l34.99888,4.37486l13.12458,5.62482l22.49928,0l19.99936,8.12474l14.99952,-5.62482l33.74892,-0.62498l3.1249,-19.37438l8.12474,-0.62498l4.37486,-28.1241l-12.4996,-34.3739l-81.87238,-22.49928l-42.44445,-31.97459l0.00001,0z" />
        <!-- Escaldes Engordany -->
        <path d="m211.02663,368.11679l7.09141,-0.00355l11.87462,16.87446l6.87478,-1.24996l9.99968,-24.9992l14.99952,-4.99984l36.24884,4.99984l39.37374,-8.12474l8.74972,-13.74956l0,-30.62402l-56.87318,-14.37454l-13.74956,4.37486l-51.87334,-39.37374l-24.37422,8.74972l-10.62466,-16.87446l-23.12426,0l-8.12474,1.87494l13.12458,14.99952l4.37486,14.99952l29.37406,38.12378l-6.2498,14.37454l12.90795,35.00243z" />
        <!-- Encamp -->
        <path d="m209.89124,206.91362l-9.89763,18.70417l-9.3747,12.4996l1.87494,4.99984l-3.1249,6.2498l9.99968,16.87446l24.37422,-9.3747l50.62338,39.37374l14.37454,-4.37486l58.74812,14.99952l38.12378,-5.62482l18.12442,13.12458l27.49912,-25.62418l0.62498,-21.24932l-5.62482,-7.49976l9.99968,-1.87494l4.37486,-8.74972l8.12474,-51.87334l-19.99936,-6.87478l-36.87382,-5.62482l-13.74956,4.99984l-5.62482,-6.2498l-29.37406,24.37422l-14.37454,-4.37486l-10.62466,-6.87478l-23.74924,2.49992l-13.12458,13.74956l-11.87462,-6.87478l-48.74844,-4.37486l-10.72671,5.04507z" />
        <!-- Canillo -->
        <path class="canillo" d="m220.5159,202.08043l6.97683,-17.71132l-8.12474,-14.99952l-3.74988,-16.24948l1.24996,-18.7494l8.74972,-6.87478l4.99984,-21.24932l4.37486,-3.74988l7.49976,0.62498l13.74956,-16.87446l14.99952,-4.37486l-1.87494,-5.62482l1.87494,-6.87478l-2.49992,-7.49976l7.49976,-5.62482l23.12426,2.49992l16.87446,-5.62482l20.62434,6.87478l3.1249,8.74972l11.24964,4.99984l20.62434,-11.24964l25.62418,5.62482l20.62434,13.74956l26.24916,-3.1249l6.2498,11.24964l-16.24948,18.7494l-0.62498,21.8743l18.7494,1.24996l27.49912,11.87462l17.49944,3.1249l10.62466,-4.37486l7.49976,14.99952l-24.37422,18.12442l-13.12458,-1.87494l-17.49944,5.62482l-12.4996,18.7494l-19.37438,-7.49976l-37.4988,-5.62482l-13.12458,4.99984l-6.2498,-6.2498l-29.37406,24.37422l-14.37454,-3.74988l-10.62466,-6.87478l-22.49928,1.87494l-14.37454,13.74956l-9.99968,-6.2498l-50.10046,-4.78796l0.00001,0z" />
    </g>
    <g class="reserve">
        <path class="buffer" d="m87.4889,93.61514l24.38253,17.00632l10.62466,1.24996l2.49992,33.12394l19.99936,26.24916l10.62466,15.6245l1.87494,8.12474l19.99936,8.12474l4.37486,4.99984l15.6245,-3.74988l13.74956,2.49992l9.99968,-4.99984l6.87478,-16.87446l-8.12474,-14.37454l-3.1249,-18.12442l0.62498,-16.24948l8.74972,-8.12474l4.99984,-20.62434l4.37486,-4.37486l8.12474,0l13.12458,-15.6245l16.24948,-4.99984l-2.49992,-8.12474l1.87494,-5.62482l-4.99984,-10.62466l-13.12458,-13.74956l-11.24964,0l-5.62482,-4.99984l-8.12474,-20.62434l-16.24948,-10.62466l-18.7494,-4.99984l-18.12442,11.87462l-6.2498,-4.99984l-10.62466,4.37486l-6.2498,8.74972l-22.49928,-1.24996l-9.3747,-13.74956l-18.7494,4.37486l-4.37486,17.49944l-11.24964,9.3747l-0.62498,16.24948l11.24964,20.62434l-10.00799,17.36758z" />
        <text class="buffer-text" x="170" y="85" text-anchor="middle">ORDINO</text>
        <path class="core" d="m243.29641,44.39796l11.07046,0.6006l13.12458,13.12458l4.99984,10.62466l-1.87494,6.2498l3.1249,7.49976l-16.87446,4.99984l-13.12458,15.6245l-13.74956,-0.62498l-26.87414,-25.62418l-5.62482,-8.74972l-4.99984,-1.24996l-1.24996,-3.74988l4.99984,-1.24996l3.74988,-3.1249l3.1249,3.74988l8.74972,-2.49992l12.4996,-12.4996l6.2498,-5.62482l7.49976,-2.49992l5.17902,5.02422z" />
        <text class="core-text" x="240" y="75" text-anchor="middle">SORTENY</text>
        <g class="transition">
            <path d="m98.11357,29.36719l-11.24134,9.38157l-1.24996,16.24948l12.4996,24.37422l11.87462,1.87494l8.74972,-3.74988l14.37454,0l9.3747,-6.87478l-1.87494,-17.49944l4.99984,-7.49976l-19.37438,-1.87494l-6.2498,-4.99984l-17.49944,-2.49992l-4.38316,-6.88165z" />
            <path d="m162.48649,56.11634l5.63314,0.13186l10.62466,9.99968l5.62482,0l5.62482,-4.37486l1.87494,4.37486l-4.99984,4.37486l-4.99984,0.62498l4.99984,4.99984l-1.87494,4.99984l-3.74988,6.87478l0.62498,4.99984l-1.24996,8.12474l-8.74972,6.2498l-3.1249,7.49976l-3.74988,6.2498l-0.62498,5.62482l4.37486,4.37486l-1.24996,4.37486l-10.62466,3.74988l-2.49992,8.12474l3.74988,6.2498l5.62482,6.2498l8.74972,-2.49992l4.37486,4.37486l-8.74972,2.49992l5.62482,3.74988l2.49992,6.2498l-2.49992,3.74988l5.62482,3.1249l5.62482,-0.62498l7.49976,1.24996l-0.62498,4.37486l-8.74972,3.74988l-5.62482,3.1249l-2.49992,8.12474l-13.12458,-3.74988l-4.37486,-3.74988l9.3747,-7.49976l-2.49992,-5.62482l-2.49992,-8.12474l-7.49976,-4.37486l-4.37486,-7.49976l-3.1249,-11.87462l0,-9.99968l5.62482,-6.2498l3.1249,-5.62482l-4.99984,-3.1249l1.87494,-5.62482l3.74988,-2.49992l1.87494,-3.74988l-4.99984,-4.99984l-4.99984,-6.87478l1.87494,-4.37486l5.62482,4.99984l5.62482,8.74972l4.99984,-4.99984l7.49976,-8.12474l1.24996,-10.62466l1.24996,-9.99968l-4.99984,-7.49976l-9.3747,-6.87478l0.61666,-5.1317z" />
        </g>
    </g>
</svg>
