<svg xmlns="http://www.w3.org/2000/svg" width="196" height="200" version="1.0">
  <defs>
    <clipPath clipPathUnits="userSpaceOnUse" id="a">
      <path d="M1022.41 6355.19h1227.57V4400.77H1022.41v1954.42z" />
    </clipPath>
  </defs>
  <g fill="#117bd2">
    <path
      d="M72.145 85.303h89.399v-3.749H72.145v3.749zM67.085 91.677h99.33v-3.749h-99.33v3.75zM62.397 98.05H171.29v-3.749H62.397v3.75zM72.145 38.63h89.399v-3.75H72.145v3.75zM90.23 31.883l26.614-7.966 26.05 7.966h10.871l-36.921-11.434L79.36 31.883" />
    <path d="M72.144 31.883l44.418-13.59 44.98 13.59v-4.03l-44.698-13.777-44.7 13.777" />
    <path
      d="M77.393 76.59s0 2.81 3.186 2.81 2.998-2.81 2.998-2.81V40.223h-2.343v36.458s0 .657-.844.657c-.843 0-.656-.843-.656-.843V40.224h-2.341M92.104 79.4h1.874V56.905L96.321 79.4h1.967V40.224h-1.967v18.744L95.01 40.224h-2.906M107.005 79.4h5.997v-2.062h-3.374V59.625h2.53v-2.154h-2.53V42.192h2.53v-1.968h-5.153M141.488 51.846v-8.81s-.092-2.812-3.093-2.812c-2.997 0-2.997 2.811-2.997 2.811V76.59s-.096 2.81 2.997 2.81 3.093-2.81 3.093-2.81v-9.842h-2.343v9.842s0 .749-.75.749c-.7 0-.843-.749-.843-.749V43.035s0-.843.843-.843c.75 0 .75.843.75.843v8.81M154.14 76.59s.092.75-.844.75c-.937 0-.937-.75-.937-.75V43.036s0-.845.843-.845c.937 0 .937.845.937.845v33.552zm2.248-17.481V43.037s.189-2.813-3.092-2.813c-3.278 0-3.278 2.813-3.278 2.813v33.552s0 2.81 3.091 2.81c3.279 0 3.279-2.81 3.279-2.81V64.25M124.34 76.59s0 .75-.61.701c-.609-.046-.609-.702-.609-.702v-9.84h-2.435v9.84s-.095 2.81 2.998 2.81c3.093 0 3.093-2.81 3.093-2.81v-6.935l-.002-1.54c-.008-4.6-3.654-13.364-3.654-16.264v-8.814s-.092-.844.563-.844c.656 0 .656.845.656.845v8.809h2.437v-8.81s.093-2.905-3-2.812c-3.091.094-3.091 2.813-3.091 2.813v7.497c0 4.92 3.654 13.214 3.654 17.01v.89" />
    <path
      d="M190.342 8.367c.295.295.444.656.444 1.078 0 .424-.15.783-.444 1.078a1.468 1.468 0 01-1.078.445c-.422 0-.782-.148-1.08-.445a1.469 1.469 0 01-.444-1.078c0-.422.15-.783.444-1.078a1.474 1.474 0 011.08-.444c.422 0 .781.148 1.078.444M190.342 14.24c.295.297.444.658.444 1.08 0 .424-.15.782-.444 1.078a1.468 1.468 0 01-1.078.445c-.422 0-.782-.149-1.08-.445a1.471 1.471 0 01-.444-1.078c0-.422.15-.783.444-1.08a1.478 1.478 0 011.08-.443c.422 0 .781.149 1.078.444M190.342 20.115c.295.297.444.656.444 1.078 0 .424-.15.783-.444 1.08a1.468 1.468 0 01-1.078.444c-.422 0-.782-.148-1.08-.444a1.475 1.475 0 01-.444-1.08c0-.422.15-.781.444-1.078a1.48 1.48 0 011.08-.444c.422 0 .781.15 1.078.444M190.342 26.442c.295.295.444.656.444 1.078 0 .424-.15.782-.444 1.08a1.472 1.472 0 01-1.078.443c-.422 0-.782-.148-1.08-.443a1.477 1.477 0 01-.444-1.08c0-.422.15-.783.444-1.078a1.474 1.474 0 011.08-.444c.422 0 .781.148 1.078.444M190.342 32.768c.295.296.444.656.444 1.078 0 .423-.15.783-.444 1.08a1.468 1.468 0 01-1.078.444c-.422 0-.782-.148-1.08-.445a1.475 1.475 0 01-.444-1.08c0-.421.15-.78.444-1.077a1.478 1.478 0 011.08-.443c.422 0 .781.148 1.078.443M190.342 39.276c.295.295.444.654.444 1.076 0 .424-.15.783-.444 1.078a1.464 1.464 0 01-1.078.446 1.47 1.47 0 01-1.08-.446 1.469 1.469 0 01-.444-1.078c0-.422.15-.781.444-1.076a1.474 1.474 0 011.08-.445c.422 0 .781.148 1.078.445M190.342 45.782c.295.295.444.656.444 1.078 0 .423-.15.782-.444 1.08a1.472 1.472 0 01-1.078.443c-.422 0-.782-.148-1.08-.443a1.48 1.48 0 01-.444-1.08c0-.422.15-.783.444-1.078a1.474 1.474 0 011.08-.444c.422 0 .781.148 1.078.444M190.342 52.831c.295.295.444.656.444 1.078 0 .424-.15.783-.444 1.08a1.474 1.474 0 01-1.078.444 1.48 1.48 0 01-1.08-.445 1.475 1.475 0 01-.444-1.08c0-.421.15-.782.444-1.077a1.48 1.48 0 011.08-.445c.422 0 .781.15 1.078.445M190.342 59.88c.295.296.444.655.444 1.077 0 .424-.15.783-.444 1.08a1.468 1.468 0 01-1.078.445c-.422 0-.782-.149-1.08-.445a1.475 1.475 0 01-.444-1.08c0-.422.15-.781.444-1.077a1.478 1.478 0 011.08-.444c.422 0 .781.149 1.078.444M190.342 67.292c.295.296.444.656.444 1.078 0 .424-.15.783-.444 1.08a1.474 1.474 0 01-1.078.444 1.48 1.48 0 01-1.08-.445 1.475 1.475 0 01-.444-1.08c0-.421.15-.78.444-1.077a1.48 1.48 0 011.08-.445c.422 0 .781.15 1.078.445M190.342 74.882c.295.295.444.656.444 1.078 0 .424-.15.782-.444 1.08a1.474 1.474 0 01-1.078.444 1.48 1.48 0 01-1.08-.444 1.477 1.477 0 01-.444-1.08c0-.422.15-.783.444-1.078a1.474 1.474 0 011.08-.444c.422 0 .781.148 1.078.444M190.342 82.835c.295.295.444.656.444 1.078 0 .424-.15.782-.444 1.08a1.468 1.468 0 01-1.078.444c-.422 0-.782-.148-1.08-.444a1.477 1.477 0 01-.444-1.08c0-.422.15-.783.444-1.078a1.48 1.48 0 011.08-.444c.422 0 .781.15 1.078.444M190.342 91.873c.295.295.444.655.444 1.077 0 .424-.15.783-.444 1.08a1.472 1.472 0 01-1.078.444c-.422 0-.782-.148-1.08-.443a1.48 1.48 0 01-.444-1.081c0-.422.15-.782.444-1.077a1.474 1.474 0 011.08-.444c.422 0 .781.148 1.078.444M190.342 101.813c.295.296.444.657.444 1.078 0 .425-.15.783-.444 1.08a1.468 1.468 0 01-1.078.444c-.422 0-.782-.148-1.08-.445a1.472 1.472 0 01-.444-1.079c0-.42.15-.782.444-1.078a1.478 1.478 0 011.08-.443c.422 0 .781.148 1.078.443M190.342 113.563c.295.295.444.655.444 1.078 0 .423-.15.781-.444 1.079a1.472 1.472 0 01-1.078.443c-.422 0-.782-.148-1.08-.443a1.477 1.477 0 01-.444-1.08c0-.422.15-.782.444-1.077a1.474 1.474 0 011.08-.445c.422 0 .781.148 1.078.445M190.342 126.215c.295.295.444.656.444 1.078 0 .422-.15.781-.444 1.08a1.472 1.472 0 01-1.078.443c-.422 0-.782-.149-1.08-.444a1.48 1.48 0 01-.444-1.08c0-.421.15-.782.444-1.077a1.474 1.474 0 011.08-.445c.422 0 .781.149 1.078.445M190.342 140.674c.295.295.444.656.444 1.078 0 .424-.15.783-.444 1.08a1.472 1.472 0 01-1.078.443c-.422 0-.782-.148-1.08-.443a1.475 1.475 0 01-.444-1.08c0-.422.15-.783.444-1.078a1.474 1.474 0 011.08-.444c.422 0 .781.148 1.078.444M190.342 156.942c.295.297.444.656.444 1.078 0 .424-.15.783-.444 1.078a1.464 1.464 0 01-1.078.446 1.47 1.47 0 01-1.08-.446 1.469 1.469 0 01-.444-1.078c0-.422.15-.781.444-1.078a1.478 1.478 0 011.08-.443c.422 0 .781.148 1.078.443M190.342 175.017c.295.297.444.656.444 1.078 0 .424-.15.783-.444 1.078a1.464 1.464 0 01-1.078.446 1.47 1.47 0 01-1.08-.446 1.469 1.469 0 01-.444-1.078c0-.422.15-.781.444-1.078a1.478 1.478 0 011.08-.443c.422 0 .781.148 1.078.443M190.342 194.898c.295.296.444.656.444 1.078 0 .424-.15.783-.444 1.08a1.468 1.468 0 01-1.078.444c-.422 0-.782-.148-1.08-.445a1.475 1.475 0 01-.444-1.08c0-.421.15-.78.444-1.077a1.478 1.478 0 011.08-.443c.422 0 .781.148 1.078.443" />
    <path
      d="M87.03 113.22h1.352v5.867c0 1.021-.117 1.831-.348 2.431-.229.6-.648 1.089-1.25 1.466-.602.376-1.394.565-2.371.565-.954 0-1.73-.165-2.336-.493a2.793 2.793 0 01-1.295-1.422c-.259-.623-.389-1.47-.389-2.547v-5.867h1.352v5.861c0 .883.082 1.535.245 1.95.165.42.445.74.843.968.399.226.887.34 1.462.34.986 0 1.687-.225 2.106-.672.42-.45.629-1.31.629-2.586M90.467 123.387v-7.363h1.13v1.046c.544-.805 1.329-1.208 2.356-1.208.444 0 .853.08 1.226.24.376.158.654.368.841.627.184.258.315.566.39.922.046.23.068.634.068 1.212v4.524h-1.25v-4.47c0-.507-.05-.887-.147-1.138a1.198 1.198 0 00-.519-.602 1.665 1.665 0 00-.876-.225c-.534 0-.997.168-1.385.505-.389.337-.582.976-.582 1.918v4.012M98.386 116.022h1.251v7.363h-1.251v-7.363zm0-2.804h1.251v1.414h-1.251v-1.414M104.263 122.273l.162 1.102a4.61 4.61 0 01-.945.11c-.455 0-.807-.07-1.058-.213a1.195 1.195 0 01-.527-.565c-.102-.233-.153-.726-.153-1.476v-4.24h-.928v-.969h.928V114.2l1.252-.748v2.57h1.27v.97h-1.27v4.306c0 .357.02.584.064.686a.531.531 0 00.217.243c.102.06.246.09.433.09.14 0 .326-.014.555-.044M106.413 118.988h4.134c-.055-.614-.213-1.075-.473-1.383-.4-.476-.92-.714-1.554-.714-.578 0-1.062.188-1.455.57-.394.38-.611.89-.652 1.527m4.12 2.018l1.285.162c-.204.752-.58 1.339-1.132 1.755-.55.416-1.254.624-2.11.624-1.08 0-1.935-.33-2.567-.993-.632-.663-.948-1.591-.948-2.787 0-1.237.32-2.198.959-2.88.639-.683 1.467-1.026 2.485-1.026.986 0 1.792.335 2.416 1.003.626.669.937 1.61.937 2.822 0 .073-.001.184-.006.33h-5.5c.046.81.277 1.428.689 1.857.413.431.928.646 1.546.646.458 0 .85-.12 1.174-.361.326-.24.582-.625.772-1.152M114.21 119.708c0 .942.198 1.646.6 2.111.4.466.872.701 1.417.701.55 0 1.017-.225 1.398-.67.385-.445.578-1.124.578-2.038 0-1.006-.197-1.744-.587-2.216-.39-.469-.872-.705-1.444-.705-.559 0-1.026.226-1.4.678-.374.452-.562 1.166-.562 2.14m3.954 3.678v-.937c-.47.732-1.158 1.099-2.067 1.099-.589 0-1.13-.162-1.625-.486a3.19 3.19 0 01-1.148-1.353c-.27-.58-.406-1.246-.406-1.999 0-.733.122-1.4.367-1.997.246-.597.613-1.055 1.104-1.374a2.94 2.94 0 011.64-.478c.445 0 .842.093 1.186.28.35.187.629.428.848.728v-3.65h1.25v10.167M125.367 123.387V113.22h1.38l5.336 7.983v-7.983h1.29v10.167h-1.38l-5.335-7.981v7.98M140.2 119.675c-.457.188-1.146.345-2.06.475-.519.075-.885.157-1.1.252a1.068 1.068 0 00-.674 1.005c0 .335.128.614.384.838.254.224.629.335 1.121.335.487 0 .921-.106 1.301-.316a1.97 1.97 0 00.837-.87c.135-.283.204-.703.204-1.257l-.014-.462zm.1 2.784c-.455.398-.902.68-1.333.844a3.858 3.858 0 01-1.39.246c-.817 0-1.444-.198-1.883-.593-.438-.397-.658-.902-.658-1.515 0-.363.082-.692.248-.989.166-.299.384-.538.652-.718.268-.181.571-.318.907-.409a9.1 9.1 0 011.121-.189c1.018-.12 1.768-.263 2.249-.43l.007-.323c0-.507-.12-.862-.357-1.07-.324-.28-.801-.42-1.436-.42-.593 0-1.03.101-1.313.305-.282.205-.491.567-.626 1.085l-1.23-.162c.112-.52.294-.94.55-1.26.255-.32.623-.568 1.107-.738.48-.174 1.04-.26 1.676-.26.63 0 1.143.073 1.537.22.395.149.685.333.87.556.185.225.314.506.389.848.042.212.064.595.064 1.15v1.666c0 1.162.024 1.895.075 2.202.052.307.154.6.308.882h-1.292a2.812 2.812 0 01-.242-.928M146.098 122.273l.162 1.102c-.35.075-.668.11-.943.11-.456 0-.807-.07-1.057-.213a1.184 1.184 0 01-.529-.565c-.102-.233-.154-.726-.154-1.476v-4.24h-.927v-.969h.927V114.2l1.252-.748v2.57h1.27v.97h-1.27v4.306c0 .357.022.584.065.686a.518.518 0 00.219.243c.1.06.246.09.431.09.142 0 .325-.014.554-.044M147.323 116.022h1.25v7.363h-1.25v-7.363zm0-2.804h1.25v1.414h-1.25v-1.414M151.283 119.7c0 .943.206 1.648.618 2.116.412.469.93.704 1.554.704.62 0 1.136-.237 1.547-.707.411-.471.616-1.188.616-2.154 0-.909-.206-1.597-.618-2.065a1.98 1.98 0 00-1.545-.703c-.624 0-1.142.233-1.554.699-.412.466-.618 1.17-.618 2.11m-1.29.005c0-1.362.38-2.371 1.14-3.027.635-.545 1.41-.817 2.322-.817 1.015 0 1.845.332 2.49.994.644.665.966 1.578.966 2.746 0 .946-.143 1.69-.429 2.233-.283.542-.699.963-1.244 1.264-.543.3-1.138.45-1.783.45-1.033 0-1.87-.33-2.506-.99-.638-.66-.957-1.611-.957-2.853M158.355 123.387v-7.363h1.13v1.046c.543-.805 1.326-1.208 2.353-1.208.446 0 .854.08 1.229.24.373.158.653.368.838.627.186.258.316.566.39.922.047.23.07.634.07 1.212v4.524h-1.25v-4.47c0-.507-.05-.887-.147-1.138a1.198 1.198 0 00-.52-.602 1.668 1.668 0 00-.875-.225 2.04 2.04 0 00-1.385.505c-.39.337-.583.976-.583 1.918v4.012M165.768 121.188l1.23-.201c.07.494.26.874.577 1.138.317.263.757.395 1.325.395.572 0 .997-.117 1.272-.349.279-.233.416-.504.416-.819a.748.748 0 00-.37-.661c-.173-.113-.598-.252-1.273-.423-.91-.23-1.543-.43-1.896-.6a1.83 1.83 0 01-.805-.698 1.854 1.854 0 01-.274-.988c0-.328.075-.63.224-.91.15-.28.354-.512.614-.696.193-.144.458-.265.794-.366a3.851 3.851 0 011.078-.148c.576 0 1.083.083 1.52.249.436.166.758.39.966.673.21.285.352.662.431 1.137l-1.23.161c-.056-.374-.216-.666-.48-.875-.266-.211-.639-.315-1.122-.315-.569 0-.976.095-1.219.282-.244.188-.365.41-.365.663 0 .162.05.307.151.434.1.135.26.246.476.333.123.046.488.152 1.098.317.875.236 1.49.428 1.843.58.351.149.63.368.829.654.2.285.301.64.301 1.066 0 .417-.121.806-.364 1.175-.242.367-.593.65-1.05.852-.457.2-.974.3-1.55.3-.959 0-1.686-.197-2.188-.595-.501-.396-.82-.985-.96-1.765M7 138.88v-10.168h7.323v1.19H8.352v3.128h5.586v1.19H8.352v3.47h6.212v1.19M17.097 135.2c0 .943.2 1.646.6 2.112.401.467.873.7 1.418.7.55 0 1.016-.223 1.4-.669.384-.446.576-1.124.576-2.039 0-1.004-.196-1.744-.585-2.214-.393-.47-.875-.707-1.447-.707-.558 0-1.025.228-1.4.678-.375.453-.562 1.167-.562 2.14m3.954 3.678v-.937c-.469.732-1.158 1.099-2.066 1.099a2.921 2.921 0 01-1.625-.484 3.2 3.2 0 01-1.147-1.354c-.27-.58-.407-1.246-.407-2 0-.733.123-1.399.367-1.996.246-.598.614-1.054 1.102-1.373a2.955 2.955 0 011.644-.48c.444 0 .838.095 1.186.28.345.188.627.429.844.728v-3.65H22.2v10.167M28.987 138.88v-1.082c-.573.828-1.353 1.243-2.34 1.243-.434 0-.841-.082-1.219-.249-.377-.167-.657-.375-.84-.628a2.35 2.35 0 01-.386-.926c-.05-.244-.076-.631-.076-1.163v-4.559h1.251v4.085c0 .65.026 1.091.077 1.316.078.329.244.588.497.774.254.188.569.281.943.281.373 0 .725-.096 1.053-.287.327-.192.56-.454.694-.785.138-.33.205-.808.205-1.437v-3.947h1.25v7.363M36.846 136.175l1.23.162c-.133.846-.477 1.508-1.027 1.987-.55.477-1.226.717-2.028.717-1.005 0-1.812-.33-2.424-.987-.611-.658-.915-1.6-.915-2.828 0-.795.132-1.49.394-2.085s.661-1.042 1.197-1.34a3.57 3.57 0 011.752-.446c.798 0 1.45.205 1.955.615.506.409.833.991.975 1.746l-1.21.161c-.115-.497-.317-.868-.61-1.118a1.573 1.573 0 00-1.056-.376c-.624 0-1.132.225-1.521.675-.39.45-.586 1.16-.586 2.132 0 .987.19 1.704.565 2.15.376.45.867.672 1.472.672.486 0 .892-.15 1.218-.45.324-.3.532-.762.619-1.387M43.885 135.168c-.458.187-1.145.344-2.06.474-.518.075-.885.158-1.1.252-.214.094-.38.23-.497.409a1.06 1.06 0 00-.176.596c0 .336.128.615.384.838.254.225.629.335 1.121.335.487 0 .92-.104 1.3-.316a1.97 1.97 0 00.838-.868c.135-.284.202-.704.202-1.259l-.012-.461zm.1 2.783c-.456.4-.9.681-1.332.844a3.866 3.866 0 01-1.39.246c-.817 0-1.444-.198-1.884-.593-.439-.397-.658-.901-.658-1.515a2 2 0 01.248-.988c.166-.3.383-.54.652-.719.268-.18.572-.317.908-.408.247-.066.62-.128 1.12-.19 1.019-.119 1.769-.263 2.248-.429.006-.17.008-.278.008-.323 0-.508-.12-.862-.357-1.07-.323-.28-.8-.421-1.435-.421-.593 0-1.03.102-1.313.305-.282.205-.493.568-.626 1.086l-1.23-.16c.11-.522.294-.942.549-1.263.254-.32.624-.567 1.106-.738.482-.173 1.04-.26 1.677-.26.63 0 1.142.075 1.536.221.395.148.685.333.871.557.186.223.315.506.39.846.041.213.062.596.062 1.151v1.665c0 1.162.026 1.896.077 2.203.052.306.154.6.307.881h-1.291a2.812 2.812 0 01-.243-.928M49.784 137.765l.162 1.102a4.61 4.61 0 01-.945.113c-.455 0-.807-.072-1.057-.216a1.181 1.181 0 01-.527-.564c-.103-.234-.154-.726-.154-1.477v-4.24h-.929v-.968h.929v-1.822l1.251-.749v2.57h1.27v.97h-1.27v4.307c0 .356.021.585.066.685a.523.523 0 00.217.243c.102.06.244.09.431.09.141 0 .327-.014.556-.044M51.007 131.515h1.252v7.363h-1.252v-7.363zm0-2.804h1.252v1.413h-1.252v-1.413M54.968 135.193c0 .942.207 1.647.617 2.117.412.467.932.702 1.554.702s1.137-.236 1.548-.706c.412-.472.617-1.189.617-2.153 0-.909-.206-1.599-.621-2.066a1.976 1.976 0 00-1.544-.704 1.99 1.99 0 00-1.554.7c-.41.466-.617 1.17-.617 2.11m-1.29.005c0-1.363.379-2.37 1.14-3.027.634-.544 1.41-.816 2.321-.816 1.017 0 1.846.33 2.49.994.645.663.966 1.576.966 2.744 0 .946-.142 1.692-.427 2.234a3.03 3.03 0 01-1.244 1.263c-.545.3-1.14.45-1.785.45-1.034 0-1.868-.33-2.504-.989-.638-.661-.957-1.612-.957-2.853M62.038 138.88v-7.364h1.13v1.048c.544-.807 1.327-1.21 2.354-1.21.445 0 .853.08 1.228.24.374.159.654.37.84.628.185.259.315.565.39.922.045.229.069.633.069 1.212v4.523h-1.25v-4.469c0-.507-.05-.887-.147-1.139a1.2 1.2 0 00-.52-.602 1.66 1.66 0 00-.875-.224 2.04 2.04 0 00-1.385.504c-.39.338-.582.976-.582 1.918v4.012M74.677 135.168c-.46.187-1.145.344-2.062.474-.518.075-.883.158-1.099.252a1.1 1.1 0 00-.498.409 1.07 1.07 0 00-.174.596c0 .336.127.615.382.838.256.225.629.335 1.121.335.488 0 .921-.104 1.3-.316.382-.21.66-.501.838-.868.136-.284.204-.704.204-1.259l-.012-.461zm.1 2.783c-.456.4-.901.681-1.334.844a3.858 3.858 0 01-1.39.246c-.815 0-1.442-.198-1.883-.593-.438-.397-.657-.901-.657-1.515 0-.362.081-.692.247-.988.166-.3.382-.54.653-.719.267-.18.57-.317.906-.408a9.152 9.152 0 011.121-.19c1.02-.119 1.768-.263 2.249-.429.006-.17.007-.278.007-.323 0-.508-.12-.862-.357-1.07-.322-.28-.801-.421-1.435-.421-.593 0-1.031.102-1.314.305-.282.205-.491.568-.625 1.086l-1.23-.16c.11-.522.293-.942.55-1.263.254-.32.622-.567 1.104-.738.484-.173 1.042-.26 1.677-.26.632 0 1.144.075 1.538.221.395.148.685.333.87.557.187.223.315.506.39.846.04.213.063.596.063 1.151v1.665c0 1.162.024 1.896.076 2.203.051.306.153.6.307.881h-1.29a2.74 2.74 0 01-.243-.928M77.813 138.878h1.25V128.71h-1.25v10.167zM81.33 138.88v-1.412h1.412v1.411c0 .524-.094.947-.28 1.27-.187.322-.484.572-.89.748l-.324-.525c.263-.117.455-.287.58-.515.12-.226.19-.552.204-.978M88.596 135.611l1.27-.121c.06.512.2.931.419 1.26.218.328.557.595 1.02.795.459.204.977.304 1.552.304.512 0 .964-.076 1.356-.229.39-.154.681-.365.873-.633.192-.267.287-.559.287-.87 0-.317-.092-.597-.28-.834-.185-.238-.492-.437-.916-.599-.272-.106-.874-.272-1.804-.497-.933-.224-1.585-.435-1.958-.636-.482-.255-.843-.569-1.081-.948a2.34 2.34 0 01-.355-1.266c0-.515.145-.994.436-1.442.29-.446.714-.786 1.272-1.017.559-.233 1.179-.347 1.863-.347.751 0 1.413.121 1.988.365.575.243 1.017.602 1.325 1.074.308.473.475 1.009.499 1.606l-1.291.1c-.07-.645-.304-1.131-.704-1.462-.398-.33-.986-.494-1.765-.494-.813 0-1.404.15-1.775.447-.372.3-.557.66-.557 1.081 0 .366.131.667.393.902.26.236.933.477 2.025.726 1.09.247 1.838.464 2.244.648.591.273 1.027.617 1.308 1.035.283.417.424.898.424 1.443 0 .54-.154 1.048-.463 1.525-.31.478-.753.85-1.332 1.116-.58.265-1.23.397-1.952.397-.917 0-1.686-.134-2.306-.4a3.22 3.22 0 01-1.458-1.207 3.402 3.402 0 01-.557-1.822M103.15 136.175l1.23.162c-.133.846-.476 1.508-1.027 1.987-.55.477-1.226.717-2.027.717-1.005 0-1.813-.33-2.424-.987-.612-.658-.916-1.6-.916-2.828 0-.795.132-1.49.395-2.085.262-.595.66-1.042 1.198-1.34a3.561 3.561 0 011.752-.446c.796 0 1.447.205 1.953.615.508.409.833.991.975 1.746l-1.21.161c-.114-.497-.317-.868-.61-1.118a1.567 1.567 0 00-1.056-.376c-.624 0-1.13.225-1.521.675-.39.45-.586 1.16-.586 2.132 0 .987.19 1.704.565 2.15.377.45.867.672 1.473.672.485 0 .892-.15 1.217-.45.325-.3.532-.762.619-1.387M105.469 131.515h1.251v7.363h-1.251v-7.363zm0-2.804h1.251v1.413h-1.251v-1.413M109.553 134.48h4.133c-.055-.613-.212-1.074-.473-1.381-.4-.478-.919-.716-1.554-.716-.578 0-1.061.19-1.455.57-.394.38-.61.89-.651 1.528m4.12 2.018l1.285.162c-.204.753-.581 1.338-1.132 1.756-.551.414-1.255.623-2.111.623-1.08 0-1.935-.331-2.566-.993-.632-.662-.948-1.592-.948-2.788 0-1.236.319-2.198.958-2.88.638-.683 1.467-1.024 2.485-1.024.987 0 1.792.334 2.417 1.001.626.67.937 1.61.937 2.822 0 .074-.002.185-.006.331h-5.5c.046.809.276 1.427.688 1.858.413.43.928.644 1.547.644.458 0 .85-.118 1.173-.36.327-.24.583-.625.773-1.152M116.503 138.88v-7.364h1.128v1.048c.544-.807 1.327-1.21 2.352-1.21.448 0 .857.08 1.23.24.374.159.654.37.841.628.184.259.314.565.39.922.046.229.07.633.07 1.212v4.523h-1.25v-4.469c0-.507-.051-.887-.149-1.139a1.198 1.198 0 00-.52-.602 1.665 1.665 0 00-.875-.224c-.535 0-.996.167-1.385.504-.388.338-.582.976-.582 1.918v4.012M127.141 137.765l.162 1.102a4.598 4.598 0 01-.945.113c-.453 0-.805-.072-1.057-.216a1.206 1.206 0 01-.528-.564c-.102-.234-.151-.726-.151-1.477v-4.24h-.929v-.968h.929v-1.822l1.25-.749v2.57h1.27v.97h-1.27v4.307c0 .356.022.585.066.685a.518.518 0 00.218.243c.099.06.246.09.431.09.141 0 .325-.014.554-.044M128.364 131.515h1.252v7.363h-1.252v-7.363zm0-2.804h1.252v1.413h-1.252v-1.413M135.453 131.515h1.25v7.363h-1.25v-7.363zm0-2.804h1.25v1.413h-1.25v-1.413zm-3.61 10.167v-6.394h-1.112v-.97h1.111v-.712c0-.726.158-1.284.473-1.67.316-.388.815-.581 1.5-.581.459 0 .884.047 1.273.15l-.194 1.058a4.352 4.352 0 00-.677-.059c-.433 0-.73.086-.888.256-.157.171-.237.53-.237 1.083v.476h1.433v.969h-1.433v6.394M143.399 136.175l1.23.162c-.133.846-.476 1.508-1.025 1.987-.551.477-1.228.717-2.03.717-1.003 0-1.81-.33-2.423-.987-.61-.658-.914-1.6-.914-2.828 0-.795.13-1.49.393-2.085.262-.595.662-1.042 1.198-1.34a3.565 3.565 0 011.752-.446c.796 0 1.447.205 1.954.615.507.409.83.991.974 1.746l-1.21.161c-.115-.497-.317-.868-.609-1.118a1.566 1.566 0 00-1.055-.376c-.625 0-1.13.225-1.523.675-.39.45-.584 1.16-.584 2.132 0 .987.189 1.704.565 2.15.375.45.865.672 1.471.672.485 0 .891-.15 1.217-.45.325-.3.533-.762.619-1.387M154.383 135.168c-.458.187-1.145.344-2.06.474-.518.075-.883.158-1.099.252a1.072 1.072 0 00-.674 1.005c0 .336.13.615.384.838.254.225.627.335 1.121.335.488 0 .921-.104 1.3-.316.38-.21.66-.501.838-.868.135-.284.204-.704.204-1.259l-.014-.461zm.102 2.783c-.458.4-.901.681-1.334.844a3.864 3.864 0 01-1.39.246c-.817 0-1.444-.198-1.883-.593-.438-.397-.658-.901-.658-1.515 0-.362.082-.692.248-.988.165-.3.382-.54.651-.719.268-.18.57-.317.908-.408a9.1 9.1 0 011.121-.19c1.018-.119 1.767-.263 2.249-.429l.007-.323c0-.508-.12-.862-.359-1.07-.32-.28-.8-.421-1.434-.421-.592 0-1.032.102-1.313.305-.282.205-.491.568-.626 1.086l-1.23-.16c.112-.522.293-.942.55-1.263.255-.32.623-.567 1.105-.738.482-.173 1.042-.26 1.677-.26.632 0 1.144.075 1.537.221.396.148.686.333.87.557.186.223.316.506.391.846.04.213.063.596.063 1.151v1.665c0 1.162.024 1.896.076 2.203.051.306.152.6.307.881h-1.29a2.74 2.74 0 01-.243-.928M157.54 138.88v-7.364h1.131v1.048c.544-.807 1.327-1.21 2.354-1.21.444 0 .853.08 1.227.24.375.159.655.37.842.628.184.259.314.565.389.922.046.229.069.633.069 1.212v4.523h-1.25v-4.469c0-.507-.05-.887-.147-1.139a1.2 1.2 0 00-.521-.602 1.66 1.66 0 00-.874-.224 2.04 2.04 0 00-1.385.504c-.39.338-.583.976-.583 1.918v4.012M166.284 135.2c0 .943.2 1.646.602 2.112.398.467.873.7 1.416.7.55 0 1.017-.223 1.4-.669.383-.446.577-1.124.577-2.039 0-1.004-.197-1.744-.586-2.214-.392-.47-.873-.707-1.445-.707-.56 0-1.025.228-1.4.678-.375.453-.564 1.167-.564 2.14m3.954 3.678v-.937c-.469.732-1.156 1.099-2.064 1.099a2.91 2.91 0 01-1.625-.484 3.203 3.203 0 01-1.148-1.354c-.271-.58-.407-1.246-.407-2 0-.733.124-1.399.368-1.996.245-.598.612-1.054 1.102-1.373a2.944 2.944 0 011.644-.48c.441 0 .837.095 1.184.28.346.188.627.429.844.728v-3.65h1.252v10.167M47.192 150.798l1.35.338c-.28 1.105-.787 1.948-1.519 2.528-.732.579-1.627.87-2.683.87-1.094 0-1.985-.224-2.67-.67-.686-.444-1.207-1.091-1.567-1.937a6.915 6.915 0 01-.536-2.723c0-1.06.202-1.983.607-2.77a4.137 4.137 0 011.721-1.797 5.026 5.026 0 012.46-.613c1.015 0 1.869.259 2.56.777.692.516 1.174 1.244 1.447 2.182l-1.331.313c-.235-.74-.575-1.28-1.021-1.617-.447-.337-1.008-.506-1.683-.506-.779 0-1.428.187-1.95.562a2.97 2.97 0 00-1.101 1.509 6.106 6.106 0 00-.316 1.95c0 .866.124 1.62.375 2.266.252.644.641 1.127 1.173 1.446a3.269 3.269 0 001.72.478c.75 0 1.386-.217 1.907-.652.52-.434.872-1.079 1.057-1.934M54.885 154.372v-1.08c-.575.827-1.355 1.241-2.34 1.241-.436 0-.843-.082-1.22-.248-.376-.168-.658-.376-.84-.627a2.367 2.367 0 01-.387-.927c-.05-.244-.075-.63-.075-1.163v-4.56h1.25v4.085c0 .651.026 1.091.077 1.318.08.327.244.586.498.772.255.189.568.281.942.281.373 0 .725-.095 1.053-.287a1.6 1.6 0 00.696-.784c.136-.33.205-.809.205-1.438v-3.946h1.249v7.363M57.922 154.372h1.25v-10.167h-1.25v10.167zM63.84 153.258l.16 1.103c-.353.075-.667.111-.944.111-.455 0-.805-.072-1.057-.214a1.209 1.209 0 01-.528-.566c-.102-.233-.153-.726-.153-1.476v-4.24h-.928v-.967h.928v-1.824l1.251-.748v2.572h1.27v.967h-1.27v4.307c0 .357.021.586.066.686a.523.523 0 00.217.242c.1.062.244.09.432.09.14 0 .326-.013.555-.043M69.88 154.372v-1.08c-.572.827-1.353 1.241-2.34 1.241-.434 0-.84-.082-1.219-.248-.377-.168-.657-.376-.838-.627a2.345 2.345 0 01-.386-.927c-.053-.244-.077-.63-.077-1.163v-4.56h1.252v4.085c0 .651.024 1.091.075 1.318.078.327.244.586.497.772.256.189.57.281.945.281.372 0 .723-.095 1.05-.287a1.59 1.59 0 00.695-.784c.138-.33.205-.809.205-1.438v-3.946h1.25v7.363M72.937 154.372v-7.363h1.13v1.124c.285-.524.549-.868.79-1.036.242-.166.507-.248.796-.248.42 0 .846.131 1.279.396l-.447 1.156a1.792 1.792 0 00-.904-.262c-.27 0-.512.081-.726.246a1.328 1.328 0 00-.46.682c-.139.444-.206.927-.206 1.456v3.849M82.407 150.66c-.458.187-1.146.345-2.06.475-.518.075-.885.159-1.1.253a1.088 1.088 0 00-.498.407c-.118.18-.175.379-.175.598 0 .335.127.613.383.836.255.225.629.336 1.122.336.486 0 .92-.105 1.3-.316.38-.21.658-.5.838-.868.134-.285.202-.704.202-1.26l-.012-.46zm.1 2.784c-.455.4-.901.68-1.333.844a3.867 3.867 0 01-1.39.245c-.816 0-1.444-.197-1.884-.592-.438-.396-.657-.902-.657-1.516 0-.362.082-.69.247-.988.168-.3.383-.537.653-.718a3.07 3.07 0 01.907-.409 8.825 8.825 0 011.121-.187c1.018-.121 1.769-.264 2.248-.431.006-.17.007-.279.007-.324 0-.507-.118-.862-.356-1.07-.324-.28-.801-.42-1.436-.42-.593 0-1.03.101-1.313.305-.281.205-.493.567-.626 1.085l-1.23-.16c.11-.521.295-.942.549-1.262.255-.32.624-.566 1.106-.738.482-.174 1.042-.26 1.677-.26.63 0 1.143.074 1.536.22.396.149.686.335.872.558.185.223.314.506.389.846.042.212.063.595.063 1.15v1.666c0 1.161.025 1.895.076 2.202.053.308.154.6.307.882h-1.29a2.767 2.767 0 01-.243-.928M85.545 154.372h1.25v-10.167h-1.25v10.167zM93.812 149.431c0 1.226.33 2.19.988 2.896.657.705 1.484 1.058 2.476 1.058 1.01 0 1.842-.356 2.495-1.069.654-.711.98-1.723.98-3.03 0-.828-.138-1.55-.418-2.166-.281-.619-.688-1.096-1.226-1.436a3.32 3.32 0 00-1.81-.51 3.43 3.43 0 00-2.455.981c-.686.655-1.03 1.746-1.03 3.276m-1.391-.018c0-1.684.454-3.005 1.36-3.958.905-.954 2.074-1.43 3.507-1.43.939 0 1.786.223 2.54.67a4.394 4.394 0 011.723 1.875c.395.801.591 1.71.591 2.726 0 1.03-.207 1.953-.623 2.766-.418.811-1.006 1.428-1.766 1.846a5.082 5.082 0 01-2.47.625c-.959 0-1.812-.23-2.567-.691a4.459 4.459 0 01-1.713-1.891 5.722 5.722 0 01-.582-2.538M103.708 154.372v-7.363h1.13v1.124c.285-.524.548-.868.79-1.036.242-.166.507-.248.796-.248.42 0 .846.131 1.278.396l-.444 1.156a1.8 1.8 0 00-.905-.262c-.269 0-.513.081-.727.246a1.328 1.328 0 00-.46.682c-.139.444-.206.927-.206 1.456v3.849M109.265 150.562c0 .967.192 1.67.578 2.115.385.445.867.666 1.445.666.576 0 1.059-.22 1.448-.662.389-.443.585-1.134.585-2.079 0-.901-.202-1.581-.602-2.038-.4-.458-.886-.688-1.45-.688-.557 0-1.03.226-1.42.676-.389.451-.584 1.12-.584 2.01m-1.05 4.415l1.212.161c.051.384.193.662.427.837.311.235.74.354 1.28.354.584 0 1.034-.117 1.35-.348.318-.23.532-.555.644-.971.066-.255.096-.79.091-1.605-.548.645-1.23.967-2.046.967-1.02 0-1.806-.366-2.363-1.095-.557-.729-.835-1.605-.835-2.626 0-.702.127-1.35.383-1.944.255-.592.624-1.051 1.111-1.373.485-.325 1.057-.485 1.71-.485.874 0 1.594.356 2.16 1.069v-.91h1.13v6.364c0 1.146-.118 1.958-.35 2.436-.235.479-.605.856-1.112 1.133-.506.278-1.132.416-1.872.416-.88 0-1.591-.198-2.133-.593-.542-.395-.804-.99-.786-1.787M121.076 150.66c-.458.187-1.145.345-2.06.475-.52.075-.885.159-1.1.253-.216.093-.38.228-.499.407-.115.18-.173.379-.173.598 0 .335.127.613.381.836.256.225.63.336 1.122.336.488 0 .92-.105 1.3-.316.381-.21.66-.5.838-.868.136-.285.203-.704.203-1.26l-.012-.46zm.1 2.784c-.456.4-.9.68-1.333.844a3.856 3.856 0 01-1.388.245c-.818 0-1.445-.197-1.884-.592-.44-.396-.658-.902-.658-1.516a2.043 2.043 0 01.9-1.707c.266-.18.57-.315.905-.408.25-.066.623-.127 1.122-.187 1.02-.121 1.768-.264 2.248-.431.006-.17.01-.279.01-.324 0-.507-.122-.862-.36-1.07-.322-.28-.801-.42-1.434-.42-.593 0-1.032.101-1.315.305-.281.205-.49.567-.624 1.085l-1.23-.16c.11-.521.293-.942.549-1.262.254-.32.623-.566 1.106-.738.482-.174 1.04-.26 1.677-.26.63 0 1.144.074 1.538.22.393.149.684.335.87.558.185.223.314.506.389.846.042.212.062.595.062 1.15v1.666c0 1.161.026 1.895.077 2.202.052.308.153.6.307.882h-1.29a2.767 2.767 0 01-.243-.928M124.232 154.372v-7.363h1.13v1.048c.543-.806 1.327-1.208 2.353-1.208.446 0 .855.077 1.229.238.373.158.653.37.84.627.185.259.316.566.39.922.047.23.07.633.07 1.213v4.523h-1.25v-4.47c0-.507-.052-.887-.147-1.139a1.2 1.2 0 00-.521-.601 1.66 1.66 0 00-.875-.225c-.536 0-.997.17-1.386.506-.388.337-.581.976-.581 1.916v4.013M132.15 147.009h1.25v7.363h-1.25v-7.363zm0-2.804h1.25v1.411h-1.25v-1.411M134.633 154.372v-1.006l4.685-5.389c-.53.027-1 .04-1.406.04h-2.996v-1.008h6.01v.825l-3.989 4.67-.781.88c.56-.054 1.087-.081 1.576-.081h3.417v1.069M147.124 150.66c-.457.187-1.146.345-2.06.475-.518.075-.885.159-1.1.253-.215.093-.381.228-.498.407-.117.18-.175.379-.175.598 0 .335.127.613.383.836.255.225.63.336 1.122.336.486 0 .92-.105 1.3-.316.38-.21.658-.5.838-.868.136-.285.205-.704.205-1.26l-.015-.46zm.1 2.784c-.457.4-.901.68-1.332.844a3.859 3.859 0 01-1.39.245c-.817 0-1.445-.197-1.883-.592-.439-.396-.659-.902-.659-1.516a2.053 2.053 0 01.9-1.707 3.07 3.07 0 01.907-.408 8.859 8.859 0 011.123-.187c1.017-.121 1.767-.264 2.249-.431l.006-.324c0-.507-.12-.862-.358-1.07-.324-.28-.801-.42-1.436-.42-.593 0-1.03.101-1.313.305-.281.205-.491.567-.626 1.085l-1.23-.16c.112-.521.293-.942.55-1.262.255-.32.623-.566 1.105-.738.483-.174 1.042-.26 1.679-.26.629 0 1.144.074 1.536.22.395.149.686.335.87.558.185.223.314.506.389.846.042.212.064.595.064 1.15v1.666c0 1.161.024 1.895.075 2.202.053.308.154.6.309.882h-1.292a2.84 2.84 0 01-.243-.928M153.025 153.258l.162 1.103c-.352.075-.67.111-.945.111-.455 0-.807-.072-1.057-.214a1.201 1.201 0 01-.528-.566c-.102-.233-.153-.726-.153-1.476v-4.24h-.928v-.967h.928v-1.824l1.252-.748v2.572h1.27v.967h-1.27v4.307c0 .357.02.586.064.686a.526.526 0 00.219.242c.1.062.244.09.431.09.14 0 .326-.013.555-.043M154.247 147.009h1.25v7.363h-1.25v-7.363zm0-2.804h1.25v1.411h-1.25v-1.411M158.209 150.686c0 .942.205 1.647.616 2.117.412.467.93.702 1.554.702.62 0 1.137-.237 1.548-.707.41-.471.617-1.188.617-2.153 0-.908-.208-1.599-.62-2.066a1.98 1.98 0 00-1.545-.703c-.624 0-1.142.233-1.554.699-.411.467-.616 1.17-.616 2.11m-1.291.005c0-1.362.379-2.37 1.14-3.025.634-.545 1.41-.818 2.321-.818 1.017 0 1.845.331 2.49.994.644.663.967 1.578.967 2.744 0 .947-.143 1.692-.43 2.234-.282.542-.699.963-1.244 1.264-.543.3-1.137.449-1.783.449-1.033 0-1.87-.33-2.506-.988-.638-.662-.955-1.611-.955-2.854M165.28 154.372v-7.363h1.128v1.048c.544-.806 1.327-1.208 2.354-1.208.445 0 .855.077 1.23.238.372.158.652.37.839.627.184.259.314.566.39.922.046.23.068.633.068 1.213v4.523h-1.25v-4.47c0-.507-.05-.887-.147-1.139a1.198 1.198 0 00-.52-.601 1.668 1.668 0 00-.875-.225c-.536 0-.997.17-1.385.506-.39.337-.582.976-.582 1.916v4.013" />
  </g>
</svg>
